<svg xmlns:xlink="http://www.w3.org/1999/xlink"  width="35" height="35" viewBox="0 0 35 35" fill="none" xmlns="http://www.w3.org/2000/svg"><g clip-path="url(#clip0_162_8381)"><path d="M29.0954 33.9634C29.1098 33.9634 29.1243 33.9598 29.1387 33.9562C29.1532 33.9525 29.1641 33.9453 29.1785 33.9381C29.1857 33.9345 29.193 33.9345 29.2002 33.9272C29.2074 33.9236 29.2074 33.9163 29.2146 33.9127C29.2182 33.9091 29.2255 33.9055 29.2291 33.9019L33.9019 29.2286C33.9055 29.2249 33.9091 29.2177 33.9127 29.2141C33.9163 29.2105 33.9237 29.2069 33.9273 29.1997C33.9309 29.1925 33.9345 29.1852 33.9381 29.178C33.9453 29.1671 33.9489 29.1526 33.9562 29.1418C33.9598 29.1274 33.9634 29.1129 33.967 29.0949C33.967 29.0876 33.9706 29.084 33.9706 29.0768V5.91962C33.9706 5.9124 33.967 5.90517 33.967 5.90156C33.967 5.88709 33.9634 5.87264 33.9598 5.85819C33.9562 5.84372 33.9489 5.83288 33.9417 5.81842C33.9381 5.81119 33.9381 5.80397 33.9309 5.79674C33.9273 5.78951 33.9199 5.7895 33.9163 5.78228C33.9127 5.77866 33.9091 5.77144 33.9055 5.76783L29.2291 1.09447C29.2255 1.09086 29.2182 1.08724 29.2146 1.08363C29.211 1.08002 29.2074 1.07278 29.2002 1.06917C29.193 1.06555 29.1857 1.06194 29.1785 1.05833C29.1641 1.0511 29.1532 1.04386 29.1387 1.04025C29.1243 1.03664 29.1098 1.03302 29.0954 1.03302C29.0881 1.03302 29.0809 1.02941 29.0737 1.02941H5.91909C5.91187 1.02941 5.90464 1.03302 5.89741 1.03302C5.88296 1.03302 5.8685 1.03664 5.85405 1.04025C5.83959 1.04386 5.82874 1.0511 5.81429 1.05833C5.80706 1.06194 5.79984 1.06194 5.79261 1.06917C5.789 1.07278 5.78538 1.07639 5.78177 1.08002C5.77453 1.08363 5.76731 1.08724 5.76369 1.09086L1.09447 5.76783C1.09085 5.77144 1.08724 5.77866 1.08363 5.78228C1.08001 5.78589 1.07279 5.78951 1.06917 5.79674C1.06195 5.80397 1.06195 5.81481 1.05471 5.82566C1.0511 5.83288 1.04749 5.84011 1.04387 5.84734C1.03665 5.87264 1.02942 5.89794 1.02942 5.92323V29.0804C1.02942 29.1057 1.03665 29.131 1.04387 29.1562C1.04749 29.1635 1.0511 29.1707 1.05471 29.178C1.05834 29.1888 1.06195 29.1961 1.06917 29.2069C1.07279 29.2141 1.08001 29.2141 1.08363 29.2213C1.08724 29.225 1.09085 29.2322 1.09447 29.2358L5.76731 33.9091C5.77092 33.9163 5.78177 33.9163 5.78538 33.9199C5.789 33.9236 5.79261 33.9272 5.79622 33.9309C5.80345 33.9345 5.81068 33.9381 5.8179 33.9417C5.83237 33.9489 5.84321 33.9562 5.85766 33.9598C5.87211 33.9634 5.88657 33.967 5.90103 33.967C5.90825 33.967 5.91548 33.9706 5.92271 33.9706H29.0773C29.0845 33.967 29.0881 33.9634 29.0954 33.9634ZM1.58597 29.1093L3.99286 27.4323L7.57067 31.0104L5.8938 33.4176L1.58597 29.1093ZM1.4667 6.33528L3.80132 7.96174V27.0346L1.4667 28.6611V6.33528ZM5.89019 1.58602L7.56706 3.99318L3.98925 7.57138L1.58236 5.89433L5.89019 1.58602ZM28.6617 1.46675L27.0354 3.80162H7.9646L6.33831 1.46675H28.6617ZM33.4104 5.89071L31.0035 7.56777L27.4257 3.98957L29.1026 1.58241L33.4104 5.89071ZM33.5297 28.6647L31.1951 27.0382V7.96535L33.5297 6.33889V28.6647ZM29.1062 33.414L27.4293 31.0068L31.0071 27.4286L33.4141 29.1057L29.1062 33.414ZM8.26455 30.7647L9.89083 28.4298H25.102L26.7283 30.7647H8.26455ZM4.235 8.26534L6.56961 9.89179V25.1046L4.235 26.731V8.26534ZM26.7319 4.23534L25.1056 6.57021H9.89445L8.26816 4.23534H26.7319ZM30.7614 26.7346L28.4268 25.1082V9.89541L30.7614 8.26896V26.7346ZM7.00328 25.1299V9.87011L9.86914 7.00393H25.1272L27.9931 9.87011V25.1299L25.1272 27.9961H9.86914L7.00328 25.1299ZM25.4995 28.2382L28.2352 25.5021L30.6421 27.1793L27.1764 30.6454L25.4995 28.2382ZM28.2352 9.49784L25.4995 6.76177L27.1764 4.35462L30.6421 7.82077L28.2352 9.49784ZM9.49691 6.76177L6.76115 9.49784L4.35425 7.82077L7.82004 4.35462L9.49691 6.76177ZM6.76115 25.5021L9.49691 28.2382L7.82004 30.6454L4.35425 27.1793L6.76115 25.5021ZM7.9646 31.1984H27.0354L28.6617 33.5333H6.3347L7.9646 31.1984Z" fill="#464646" stroke="#464646" stroke-width="0.376471"></path></g><defs><clipPath id="clip0_162_8381"><rect width="35" height="35" fill="white"></rect></clipPath></defs></svg>