<svg xmlns:xlink="http://www.w3.org/1999/xlink" width="35" height="35" viewBox="0 0 35 35" fill="none"
    xmlns="http://www.w3.org/2000/svg">
    <path
        d="M28.5177 4.12219C28.5141 4.10426 28.5141 4.08991 28.507 4.07556C28.5033 4.06122 28.4961 4.05045 28.4852 4.0397C28.4781 4.02894 28.4781 4.01818 28.4708 4.01101C28.4672 4.00742 28.4636 4.00742 28.46 4.00383C28.4563 4.00024 28.4563 3.99666 28.4527 3.99308L25.7525 1.46097C25.7488 1.45739 25.7453 1.45739 25.7453 1.4538C25.7417 1.45021 25.7417 1.45021 25.7381 1.44663C25.7308 1.43946 25.7199 1.43946 25.7128 1.43586C25.6983 1.42869 25.6876 1.42153 25.6694 1.41435C25.655 1.41076 25.6442 1.40718 25.6298 1.40718C25.6189 1.40718 25.6117 1.4 25.6009 1.4H8.30533C8.2945 1.4 8.28728 1.40358 8.27645 1.40718C8.26201 1.40718 8.25118 1.41076 8.23674 1.41435C8.2223 1.41793 8.20786 1.42869 8.19342 1.43586C8.1862 1.43946 8.17537 1.44304 8.16815 1.44663C8.16454 1.45021 8.16454 1.45021 8.16093 1.4538C8.15732 1.45739 8.15371 1.45739 8.15371 1.46097L5.45342 3.99308C5.44981 3.99666 5.44981 4.00024 5.44621 4.00383C5.4426 4.00742 5.43898 4.00742 5.43537 4.01101C5.42816 4.01818 5.42454 4.02894 5.42093 4.0397C5.41372 4.05045 5.40649 4.06122 5.39928 4.07556C5.39205 4.08991 5.39205 4.10426 5.38844 4.12219C5.38844 4.13295 5.38123 4.14012 5.38123 4.15088V30.8491C5.38123 30.8599 5.38484 30.867 5.38844 30.8778C5.39205 30.8922 5.39205 30.9101 5.39928 30.9245C5.40289 30.9388 5.41372 30.9495 5.42093 30.9603C5.42816 30.9711 5.42816 30.9818 5.43537 30.989C5.43898 30.9926 5.4426 30.9926 5.4426 30.9961C5.44621 30.9998 5.44621 31.0034 5.44981 31.0069L8.1501 33.539C8.15371 33.5426 8.15732 33.5426 8.15732 33.5462C8.16093 33.5498 8.16093 33.5498 8.16454 33.5534C8.17537 33.5606 8.1862 33.5677 8.20064 33.5713C8.20786 33.5749 8.21508 33.5821 8.22591 33.5856C8.25118 33.5964 8.27645 33.6 8.30172 33.6H25.6009C25.6262 33.6 25.6514 33.5964 25.6767 33.5856C25.6839 33.5821 25.6911 33.5785 25.7019 33.5713C25.7128 33.5642 25.7272 33.5606 25.7381 33.5534C25.7417 33.5498 25.7417 33.5498 25.7453 33.5462C25.7488 33.5426 25.7525 33.5426 25.7525 33.539L28.4527 31.0069C28.4563 31.0034 28.4563 30.9998 28.46 30.9961C28.4636 30.9926 28.4672 30.9926 28.4708 30.989C28.4781 30.9818 28.4816 30.9711 28.4852 30.9603C28.4925 30.9495 28.4997 30.9388 28.507 30.9245C28.5141 30.9101 28.5141 30.8922 28.5177 30.8778C28.5177 30.867 28.525 30.8599 28.525 30.8491V4.15088C28.5214 4.14012 28.5177 4.13295 28.5177 4.12219ZM25.6298 33.0656L24.4709 31.6059L26.5503 29.6548L27.9799 30.8563L25.6298 33.0656ZM8.75297 33.1696L9.83959 31.8031H24.0738L25.1605 33.1696H8.75297ZM5.92994 30.8599L7.35951 29.6584L9.43887 31.6094L8.28006 33.0692L5.92994 30.8599ZM5.82164 4.61354L7.15373 5.73255V29.2675L5.82164 30.3864V4.61354ZM8.28006 1.9344L9.43887 3.39412L7.35951 5.34521L5.92994 4.14371L8.28006 1.9344ZM25.1569 1.83038L24.0702 3.19686H9.83959L8.75297 1.83038H25.1569ZM27.9799 4.14012L26.5503 5.34161L24.4709 3.39053L25.6298 1.93081L27.9799 4.14012ZM26.3265 28.9016L24.9943 27.7827V7.21737L26.3265 6.09837V28.9016ZM10.1789 31.3691L11.2655 30.0027H22.6406L23.7273 31.3691H10.1789ZM7.58333 6.09837L8.91542 7.21737V27.7827L7.58333 28.9016V6.09837ZM23.7309 3.63083L22.6442 4.99731H11.2655L10.1789 3.63083H23.7309ZM24.5612 27.7898L22.6624 29.5723H11.2475L9.34862 27.7898V7.2102L11.2475 5.42769H22.6624L24.5612 7.2102V27.7898ZM24.785 6.82645L23.0414 5.19098L24.2002 3.73125L26.2181 5.62495L24.785 6.82645ZM10.8684 5.19098L9.1248 6.82645L7.69524 5.62495L9.71323 3.73125L10.8684 5.19098ZM9.1248 28.1736L10.8684 29.8091L9.70962 31.2687L7.69163 29.3751L9.1248 28.1736ZM23.0414 29.8091L24.785 28.1736L26.2145 29.3751L24.1966 31.2687L23.0414 29.8091ZM26.7597 29.2675V5.73255L28.0918 4.61354V30.3829L26.7597 29.2675Z"
        fill="#464646" stroke="#000000" stroke-width="0.368"></path>
</svg>