<svg xmlns:xlink="http://www.w3.org/1999/xlink"  width="101" height="36" viewBox="0 0 101 36" fill="none" xmlns="http://www.w3.org/2000/svg"><g clip-path="url(#clip0_162_11378)"><path d="M25.5635 24.2005H6.05769C2.66538 24.2005 0 21.4313 0 18.1805C0 14.9296 2.78654 12.1604 6.05769 12.1604H25.5635C28.9558 12.1604 31.6212 14.9296 31.6212 18.1805C31.6212 21.4313 28.9558 24.2005 25.5635 24.2005ZM6.05769 13.3644C3.39231 13.3644 1.21154 15.5316 1.21154 18.1805C1.21154 20.8293 3.39231 22.9965 6.05769 22.9965H25.5635C28.2288 22.9965 30.4096 20.8293 30.4096 18.1805C30.4096 15.5316 28.2288 13.3644 25.5635 13.3644H6.05769Z" fill="#ffffff"></path><path d="M94.6211 24.2005H75.1153C71.723 24.2005 69.0576 21.4313 69.0576 18.1805C69.0576 14.9296 71.8442 12.1604 75.1153 12.1604H94.6211C98.0134 12.1604 100.679 14.9296 100.679 18.1805C100.679 21.4313 98.0134 24.2005 94.6211 24.2005ZM75.1153 13.3644C72.4499 13.3644 70.2692 15.5316 70.2692 18.1805C70.2692 20.8293 72.4499 22.9965 75.1153 22.9965H94.6211C97.2865 22.9965 99.4672 20.8293 99.4672 18.1805C99.4672 15.5316 97.2865 13.3644 94.6211 13.3644H75.1153Z" fill="#ffffff"></path><path d="M50.5211 27.0902C48.2191 27.0902 46.1595 26.2473 44.4634 24.5617L44.3422 24.3209C42.8884 22.7557 42.0403 20.7089 42.0403 18.5417C42.0403 16.254 42.8884 14.0868 44.5845 12.5216C46.1595 10.9564 48.3403 9.99316 50.6422 9.99316C52.9441 9.99316 55.0037 10.836 56.6999 12.5216C58.2749 14.0868 59.2441 16.254 59.2441 18.5417C59.2441 20.7089 58.3961 22.7557 56.9422 24.3209L56.8211 24.5617C54.8826 26.2473 52.7018 27.0902 50.5211 27.0902ZM45.4326 23.9597C46.7653 25.1637 48.5826 25.8861 50.3999 25.8861C52.3384 25.8861 54.0345 25.1637 55.4884 23.8393L55.6095 23.7189C56.9422 22.3945 57.7903 20.4681 57.7903 18.5417C57.7903 16.6152 57.0634 14.8092 55.6095 13.3644C54.2768 12.04 52.4595 11.1972 50.3999 11.1972C48.4614 11.1972 46.6441 11.9196 45.1903 13.3644C43.8576 14.6888 43.0095 16.6152 43.0095 18.5417C43.0095 20.4681 43.7364 22.2741 45.1903 23.7189L45.4326 23.9597Z" fill="#ffffff"></path><path d="M50.5212 8.42802C49.4308 8.42802 48.3404 7.94642 47.4924 7.22401L47.2501 6.98321C46.5231 6.2608 46.1597 5.17719 46.1597 4.21398C46.1597 3.13036 46.6443 2.04675 47.3712 1.20394C48.9462 -0.361275 51.7327 -0.361275 53.3077 1.20394C54.1558 2.04675 54.5193 3.00996 54.5193 4.21398C54.5193 5.29759 54.1558 6.2608 53.4289 6.98321L53.3077 7.22401C52.702 7.94642 51.6116 8.42802 50.5212 8.42802ZM48.4616 6.3812C49.552 7.34441 51.4904 7.34441 52.5808 6.3812L52.702 6.2608C53.3077 5.65879 53.5501 4.93638 53.5501 4.09357C53.5501 3.25077 53.1866 2.52836 52.702 1.92635C51.6116 0.722337 49.552 0.842738 48.4616 1.92635C47.8558 2.52836 47.6135 3.25077 47.6135 4.09357C47.4924 4.93638 47.7347 5.77919 48.4616 6.3812Z" fill="#ffffff"></path><path d="M58.0328 10.5953C57.1847 10.5953 56.4578 10.3545 55.7309 9.87287C54.7616 9.27087 54.1559 8.30766 53.9136 7.22404V6.98324C53.7924 6.02003 53.9136 4.93642 54.5193 4.09361C55.1251 3.1304 56.0943 2.52839 57.1847 2.28759C58.2751 2.04679 59.3655 2.28759 60.3347 2.8896C61.3039 3.4916 61.9097 4.45481 62.152 5.53843C62.3943 6.62204 62.152 7.70565 61.5462 8.66886C60.9405 9.51167 60.0924 10.1137 59.1232 10.4749H58.8809C58.6386 10.5953 58.3963 10.5953 58.0328 10.5953ZM55.1251 7.10364C55.3674 7.82605 55.7309 8.42806 56.4578 8.90966C57.0636 9.27087 57.9116 9.51167 58.6386 9.39127H58.7597C59.6078 9.27087 60.2136 8.78926 60.6982 8.06685C61.1828 7.34445 61.3039 6.62204 61.0616 5.77923C60.9405 4.93642 60.4559 4.33441 59.7289 3.85281C59.002 3.3712 58.2751 3.2508 57.427 3.4916C56.5789 3.612 55.9732 4.09361 55.4886 4.81602C55.0039 5.53843 54.8828 6.26083 55.1251 7.10364Z" fill="#ffffff"></path><path d="M63.2423 16.4948C62.8788 16.4948 62.3942 16.4948 62.0307 16.3744L61.7884 16.254C60.698 15.8928 59.85 15.05 59.3653 14.0868C58.8807 13.1236 58.8807 11.9196 59.2442 10.8359L59.3653 10.5951C59.85 9.63193 60.5769 8.90953 61.5461 8.42792C62.6365 7.94632 63.7269 7.94632 64.8173 8.30752C65.9076 8.66872 66.7557 9.51153 67.2403 10.4747C67.725 11.438 67.725 12.642 67.3615 13.7256C66.998 14.8092 66.15 15.652 65.1807 16.1336C64.4538 16.3744 63.848 16.4948 63.2423 16.4948ZM62.1519 15.05C63 15.4112 63.848 15.2908 64.575 15.05C65.3019 14.6888 65.9076 14.0868 66.15 13.3644C66.3923 12.642 66.3923 11.7992 66.0288 11.0768C65.6653 10.3543 65.0596 9.75234 64.3326 9.51153C63.6057 9.27073 62.7576 9.27073 62.0307 9.63193C61.3038 9.99314 60.698 10.5951 60.4557 11.3176V11.438C60.2134 12.1604 60.3346 12.8828 60.5769 13.6052C60.8192 14.2072 61.425 14.8092 62.1519 15.05Z" fill="#ffffff"></path><path d="M64.4537 24.321C64.2114 24.321 64.0903 24.321 63.848 24.321C62.7576 24.2006 61.9095 23.719 61.1826 22.8762L61.0614 22.6354C60.3345 21.7926 60.0922 20.5885 60.2133 19.5049C60.3345 18.4213 60.9403 17.3377 61.7883 16.7357L62.0307 16.6153C62.8787 16.0133 63.9691 15.7725 64.9383 15.8929C66.0287 16.0133 67.1191 16.6153 67.7249 17.4581C68.4518 18.3009 68.6941 19.5049 68.573 20.5885C68.4518 21.6722 67.846 22.6354 66.998 23.3578C66.271 23.9598 65.423 24.321 64.4537 24.321ZM62.0307 21.7926C62.6364 22.515 63.2422 22.8762 64.0903 22.9966C64.9383 23.117 65.6653 22.8762 66.271 22.3946C66.8768 21.913 67.3614 21.1906 67.4826 20.3477C67.6037 19.5049 67.3614 18.7825 66.8768 18.1805C66.3922 17.5785 65.6653 17.0969 64.8172 16.9765C63.9691 16.8561 63.2422 17.0969 62.6364 17.5785L62.5153 17.6989C61.9095 18.1805 61.546 18.9029 61.4249 19.6253C61.3037 20.4681 61.546 21.1906 62.0307 21.7926Z" fill="#ffffff"></path><path d="M61.1827 31.4246C60.2135 31.4246 59.2443 31.0634 58.5173 30.4614C57.6693 29.739 57.1846 28.8962 57.0635 27.8126V27.5718C56.9423 26.4882 57.3058 25.4046 58.0327 24.5618C58.7596 23.7189 59.85 23.1169 60.9404 23.1169H61.1827C62.2731 23.1169 63.2423 23.4781 64.0904 24.0802C64.9385 24.8026 65.5443 25.8862 65.5443 26.9698C65.6654 28.0534 65.3019 29.137 64.575 30.1002C63.8481 30.943 62.8789 31.4246 61.6673 31.545C61.425 31.4246 61.3039 31.4246 61.1827 31.4246ZM58.275 27.4514C58.3962 28.4146 58.7596 29.137 59.3654 29.6186C59.9712 30.1002 60.8193 30.341 61.5462 30.341C62.3943 30.2206 63.1212 29.8594 63.6058 29.2574C64.0904 28.6554 64.3327 27.8126 64.3327 27.0902C64.2116 26.2474 63.8481 25.525 63.2423 25.0434C62.6366 24.5618 61.7885 24.321 61.0616 24.321H60.9404C60.2135 24.4414 59.4866 24.8026 59.002 25.4046C58.3962 25.8862 58.1539 26.6086 58.275 27.4514Z" fill="#ffffff"></path><path d="M54.6404 35.7591C53.9135 35.7591 53.3077 35.6387 52.7019 35.2775C51.7327 34.7959 51.0058 33.8327 50.6423 32.7491C50.2788 31.7859 50.4 30.7023 50.7635 29.8595L50.8846 29.6187C51.3692 28.6554 52.3385 27.933 53.4288 27.5718C54.5192 27.2106 55.6096 27.331 56.7 27.8126L56.9423 27.933C57.7904 28.4146 58.5173 29.2575 58.7596 30.2207C59.1231 31.3043 59.0019 32.3879 58.5173 33.4715C58.0327 34.4347 57.0635 35.1571 55.9731 35.5183C55.4885 35.7591 55.125 35.7591 54.6404 35.7591ZM51.975 30.1003C51.4904 30.9431 51.4904 31.7859 51.7327 32.5083C51.975 33.2307 52.4596 33.9531 53.1865 34.3143C53.9135 34.6755 54.7615 34.7959 55.4885 34.5551C56.2154 34.3143 56.9423 33.8327 57.3058 33.1103C57.6692 32.3879 57.7904 31.5451 57.5481 30.8227C57.3058 30.1003 56.8212 29.3779 56.0942 29.0167L55.9731 28.8963C55.2462 28.535 54.5192 28.535 53.7923 28.7758C53.0654 28.8963 52.4596 29.3779 51.975 30.1003Z" fill="#ffffff"></path><path d="M46.7653 35.9998C46.4018 35.9998 46.0383 35.9998 45.6749 35.8794C44.5845 35.6386 43.6153 34.9162 43.1307 33.953C42.5249 32.9898 42.4037 31.7858 42.7672 30.7022C43.0095 29.739 43.7364 28.8962 44.5845 28.2942L44.8268 28.1738C45.796 27.5717 47.0076 27.4513 48.098 27.8126C49.1883 28.0534 50.1576 28.7758 50.6422 29.739L50.7633 29.9798C51.248 30.943 51.3691 31.9062 51.0057 32.9898C50.7633 34.0734 50.0364 35.0366 49.0672 35.5182C48.2191 35.759 47.4922 35.9998 46.7653 35.9998ZM43.8576 30.943C43.6153 31.6654 43.7364 32.5082 44.0999 33.2306C44.4633 33.953 45.1903 34.4346 45.9172 34.6754C46.6441 34.9162 47.4922 34.7958 48.2191 34.4346C48.946 34.0734 49.4307 33.351 49.673 32.6286C49.9153 31.9062 49.7941 31.0634 49.4307 30.341L49.3095 30.1002C48.946 29.4982 48.3403 29.0166 47.4922 28.7758C46.7653 28.535 45.9172 28.6554 45.3114 29.0166H45.1903C44.5845 29.4982 43.9787 30.1002 43.8576 30.943Z" fill="#ffffff"></path><path d="M39.9809 31.786C39.8597 31.786 39.8597 31.786 39.7386 31.786C38.6482 31.786 37.5578 31.184 36.8309 30.4615C36.1039 29.6187 35.7405 28.5351 35.7405 27.4515C35.7405 26.3679 36.3462 25.2843 37.0732 24.5619C37.8001 23.8395 38.7693 23.4783 39.8597 23.4783H40.102C41.1924 23.4783 42.2828 24.0803 43.0097 24.8027C43.7366 25.6455 44.1001 26.7291 44.1001 27.8127V28.0535C43.9789 29.1371 43.4943 29.9799 42.7674 30.7024C42.0405 31.4248 41.0712 31.786 39.9809 31.786ZM37.9212 25.4047C37.3155 25.8863 36.952 26.7291 36.952 27.4515C36.952 28.2943 37.1943 29.0167 37.6789 29.6187C38.1636 30.2207 39.0116 30.5819 39.7386 30.5819C40.5866 30.5819 41.3136 30.3411 41.9193 29.8595C42.5251 29.3779 42.8886 28.5351 42.8886 27.8127V27.6923C42.8886 26.9699 42.6462 26.2475 42.1616 25.6455C41.677 25.0435 40.9501 24.6823 40.2232 24.6823H40.102C39.3751 24.5619 38.527 24.8027 37.9212 25.4047Z" fill="#ffffff"></path><path d="M36.5884 24.6822C35.7404 24.6822 34.8923 24.4414 34.1654 23.8394C33.1961 23.2374 32.5904 22.2742 32.4692 21.0702C32.2269 19.9866 32.5904 18.9029 33.1961 17.9397C33.8019 16.9765 34.7711 16.3745 35.9827 16.2541C37.0731 16.1337 38.0423 16.2541 38.8904 16.8561L39.1327 16.9765C40.1019 17.5785 40.7077 18.5417 40.8288 19.7458C41.0711 20.8294 40.7077 22.0334 40.1019 22.8762L39.9807 23.117C39.375 23.9598 38.4057 24.4414 37.4365 24.5618C37.0731 24.6822 36.8307 24.6822 36.5884 24.6822ZM36.5884 17.4581C36.4673 17.4581 36.225 17.4581 36.1038 17.4581C35.2557 17.5785 34.65 18.0601 34.1654 18.6621C33.6807 19.2641 33.5596 20.107 33.6807 20.9498C33.8019 21.7926 34.2865 22.3946 34.8923 22.8762C35.4981 23.3578 36.3461 23.4782 37.1942 23.3578C38.0423 23.2374 38.6481 22.7558 39.1327 22.1538L39.2538 22.0334C39.6173 21.4314 39.8596 20.709 39.7384 19.8662C39.6173 19.1437 39.2538 18.4213 38.6481 17.9397H38.5269C37.8 17.6989 37.1942 17.4581 36.5884 17.4581Z" fill="#ffffff"></path><path d="M37.4366 16.9766C36.8308 16.9766 36.3462 16.8562 35.7405 16.6154C34.6501 16.1338 33.9231 15.4114 33.4385 14.3278C32.9539 13.2442 33.0751 12.1606 33.4385 11.077C33.9231 9.99334 34.6501 9.27093 35.7405 8.78933C36.8308 8.30772 37.9212 8.42813 39.0116 8.78933C39.9808 9.15053 40.7078 9.87294 41.1924 10.8362L41.3135 11.077C41.677 12.1606 41.677 13.2442 41.3135 14.3278C40.8289 15.4114 40.102 16.1338 39.0116 16.6154L38.7693 16.7358C38.4058 16.8562 37.9212 16.9766 37.4366 16.9766ZM37.4366 9.75254C37.0731 9.75254 36.7097 9.87294 36.3462 9.99334C35.6193 10.2341 35.0135 10.8362 34.6501 11.5586C34.2866 12.281 34.2866 13.1238 34.6501 13.8462C34.8924 14.5686 35.4981 15.1706 36.2251 15.5318C36.952 15.893 37.8001 15.893 38.527 15.5318H38.6481C39.3751 15.1706 39.8597 14.689 40.2231 13.9666C40.4655 13.2442 40.5866 12.5218 40.2231 11.7994V11.679C39.9808 10.8362 39.3751 10.2341 38.6481 9.99334C38.2847 9.75254 37.9212 9.75254 37.4366 9.75254Z" fill="#ffffff"></path><path d="M42.525 10.836C42.2827 10.836 42.0404 10.836 41.7981 10.7156H41.5558C40.5865 10.4748 39.7385 9.87275 39.1327 9.02994C38.5269 8.06673 38.2846 6.98312 38.4058 5.89951C38.6481 4.8159 39.2539 3.85269 40.2231 3.25068C41.1923 2.64867 42.2827 2.40787 43.3731 2.64867C44.4635 2.88948 45.4327 3.49148 46.0385 4.45469C46.6442 5.2975 46.8865 6.26071 46.7654 7.34433V7.58513C46.5231 8.66874 45.9173 9.63195 44.9481 10.234C44.2212 10.5952 43.3731 10.836 42.525 10.836ZM42.0404 9.63195C42.7673 9.75235 43.4942 9.51155 44.2212 9.15035C44.8269 8.66874 45.3115 8.06673 45.4327 7.34433V7.22392C45.5539 6.38111 45.4327 5.65871 44.9481 4.9363C44.4635 4.21389 43.8577 3.85269 43.0096 3.73228C42.1615 3.61188 41.4346 3.73229 40.7077 4.21389C39.9808 4.6955 39.6173 5.2975 39.4962 6.14031C39.375 6.98312 39.4962 7.70553 39.9808 8.42794C40.4654 9.02994 41.0712 9.51155 41.9192 9.63195H42.0404Z" fill="#ffffff"></path></g><defs><clipPath id="clip0_162_11378"><rect width="100.8" height="36" fill="white"></rect></clipPath></defs></svg>