<svg xmlns:xlink="http://www.w3.org/1999/xlink"  width="35" height="35" viewBox="0 0 35 35" fill="none" xmlns="http://www.w3.org/2000/svg"><g clip-path="url(#clip0_162_8405)"><path d="M26.2178 17.5017C26.2178 13.9527 25.3724 10.7042 23.6355 7.56533L23.6322 7.5618C22.2967 5.15103 20.3165 3.02659 17.5763 1.06476C17.5697 1.06122 17.5632 1.05769 17.5566 1.05416C17.5467 1.05062 17.5369 1.04356 17.527 1.04001C17.5171 1.03648 17.5073 1.03648 17.4974 1.03294C17.4875 1.03294 17.4776 1.02941 17.4678 1.02941C17.4579 1.02941 17.448 1.03294 17.4382 1.03294C17.4283 1.03294 17.4184 1.03648 17.4086 1.04001C17.3987 1.04356 17.3888 1.04709 17.379 1.05416C17.3724 1.05769 17.3658 1.06122 17.3559 1.06476C14.6158 3.02659 12.6355 5.15103 11.3033 7.55826L11.3 7.5618C9.56317 10.7042 8.71777 13.9527 8.71777 17.5017C8.71777 21.0507 9.56317 24.2993 11.3 27.4383L11.3033 27.4417C12.6388 29.8489 14.6191 31.9734 17.3559 33.9353C17.3592 33.9388 17.3625 33.9353 17.3658 33.9388C17.3954 33.96 17.4316 33.9706 17.4645 33.9706C17.4974 33.9706 17.5336 33.9565 17.5632 33.9388C17.5665 33.9353 17.5697 33.9388 17.573 33.9353C20.3132 31.9734 22.2935 29.8489 23.6257 27.4417L23.629 27.4383C25.3724 24.2993 26.2178 21.0507 26.2178 17.5017ZM23.5303 26.7702L22.2935 21.8072L25.8165 18.0214C25.7408 21.1215 24.9842 23.9918 23.5303 26.7702ZM19.2803 27.6856L17.7737 26.3388L19.5303 24.7199L19.2803 27.6856ZM17.4678 33.1576L15.7276 28.1735L17.4678 26.6146L19.2079 28.1735L17.4678 33.1576ZM15.6553 7.31789L17.1619 8.66467L15.4053 10.2836L15.6553 7.31789ZM17.4678 1.84596L19.2079 6.83009L17.4678 8.38895L15.7276 6.83009L17.4678 1.84596ZM17.4678 26.0597L15.3494 24.1084L14.379 17.5017L15.3494 10.8952L17.4678 8.94392L19.5862 10.8952L20.5566 17.5017L19.5862 24.1084L17.4678 26.0597ZM14.1092 16.6075L13.0895 13.3165L14.8757 11.3971L14.1092 16.6075ZM14.1092 18.3925L14.8757 23.6065L13.0895 21.687L14.1092 18.3925ZM20.8263 16.6075L20.0598 11.3935L21.8461 13.313L20.8263 16.6075ZM20.8263 18.3925L21.8461 21.6835L20.0598 23.6029L20.8263 18.3925ZM22.1586 21.3512L20.9645 17.5017L22.1586 13.6524L25.7408 17.5017L22.1586 21.3512ZM21.971 12.8499L19.9612 10.6901L19.6619 7.15529L23.2211 7.84105L21.971 12.8499ZM19.2803 7.31789L19.5303 10.2836L17.7737 8.66467L19.2803 7.31789ZM14.9744 10.6901L12.9645 12.8499L11.7178 7.84105L15.277 7.15529L14.9744 10.6901ZM12.777 13.6524L13.9711 17.5017L12.777 21.3512L9.19475 17.5017L12.777 13.6524ZM12.9645 22.1537L14.9744 24.3134L15.2737 27.8483L11.7145 27.1625L12.9645 22.1537ZM15.6553 27.6856L15.4053 24.7199L17.1619 26.3388L15.6553 27.6856ZM19.9612 24.3134L21.971 22.1537L23.2178 27.1625L19.6586 27.8483L19.9612 24.3134ZM22.2935 13.1963L23.5303 8.23342C24.9842 11.0118 25.744 13.8821 25.8165 16.9821L22.2935 13.1963ZM23.0566 7.37799L19.5862 6.7099L17.8724 1.79294C20.1487 3.5038 21.8494 5.33839 23.0566 7.37799ZM17.0632 1.79294L15.3494 6.7099L11.879 7.37799C13.0862 5.33839 14.7869 3.5038 17.0632 1.79294ZM11.4053 8.23342L12.6421 13.1963L9.11909 16.9821C9.19475 13.8821 9.95133 11.0118 11.4053 8.23342ZM12.6421 21.8072L11.4053 26.7702C9.95133 23.9918 9.19146 21.1215 9.11909 18.0214L12.6421 21.8072ZM11.879 27.6255L15.3494 28.2936L17.0632 33.2106C14.7869 31.4997 13.0862 29.6616 11.879 27.6255ZM17.8724 33.2071L19.5862 28.2901L23.0566 27.622C21.8494 29.6616 20.1487 31.4997 17.8724 33.2071Z" fill="#464646" stroke="#464646" stroke-width="0.376471"></path></g><defs><clipPath id="clip0_162_8405"><rect width="18.5938" height="35" fill="white" transform="translate(7.65625)"></rect></clipPath></defs></svg>