<svg xmlns:xlink="http://www.w3.org/1999/xlink"  width="37" height="35" viewBox="0 0 37 35" fill="none" xmlns="http://www.w3.org/2000/svg"><path d="M25.3055 32.5719C25.3091 32.5719 25.3091 32.5719 25.3127 32.5684C27.415 31.9684 29.3508 30.8211 30.7693 29.3368C32.2999 27.9614 33.4867 26.0842 34.1018 24.0456C34.1018 24.0421 34.1018 24.0421 34.1055 24.0386C34.3985 23.0737 34.5469 22.1228 34.5469 21.2105V12.7895C34.5469 11.8772 34.3985 10.9263 34.1055 9.9614C34.1055 9.9579 34.1055 9.95789 34.1018 9.95439C33.4831 7.91579 32.2999 6.0386 30.7693 4.66316C29.3508 3.17895 27.415 2.02807 25.3127 1.43158C25.3091 1.43158 25.3091 1.43158 25.3055 1.42807C24.3104 1.14386 23.3298 1 22.389 1H13.7048C12.764 1 11.7834 1.14386 10.7883 1.42807C10.7847 1.42807 10.7847 1.42807 10.7811 1.43158C8.67878 2.03158 6.74292 3.17895 5.3245 4.66316C3.79391 6.0386 2.60707 7.91579 1.99195 9.95439C1.99195 9.95789 1.99194 9.9579 1.98832 9.9614C1.69524 10.9263 1.54688 11.8772 1.54688 12.7895V21.2105C1.54688 22.1228 1.69524 23.0737 1.98832 24.0386C1.98832 24.0421 1.98833 24.0421 1.99195 24.0456C2.6107 26.0842 3.79391 27.9614 5.3245 29.3368C6.74292 30.8211 8.67878 31.9719 10.7811 32.5684C10.7847 32.5684 10.7847 32.5684 10.7883 32.5719C11.7834 32.8561 12.764 33 13.7048 33H22.389C23.3298 33 24.3104 32.8561 25.3055 32.5719ZM2.03174 17L5.76233 12.0667L10.5133 17L5.76595 21.9333L2.03174 17ZM6.1278 11.8281L10.593 10.2807V16.4667L6.1278 11.8281ZM10.593 17.5333V23.7193L6.1278 22.1719L10.593 17.5333ZM11.0272 10.193H25.0666V23.807H11.0272V10.193ZM12.9594 5.09123L18.0469 1.47018L23.1344 5.08772L18.0469 9.69474L12.9594 5.09123ZM17.4969 9.77193H11.1176L12.7133 5.44211L17.4969 9.77193ZM18.5969 9.77193L23.3805 5.44211L24.9762 9.77193H18.5969ZM34.062 17L30.3278 21.9333L25.5805 17L30.3278 12.0667L34.062 17ZM29.966 22.1719L25.5008 23.7193V17.5333L29.966 22.1719ZM25.5008 16.4667V10.2807L29.966 11.8281L25.5008 16.4667ZM17.4969 24.2281L12.7133 28.5579L11.1176 24.2281H17.4969ZM18.0469 24.3053L23.1344 28.9088L18.0469 32.5298L12.9594 28.9088L18.0469 24.3053ZM18.5969 24.2281H24.9762L23.3805 28.5579L18.5969 24.2281ZM22.389 32.5789H18.7091L23.3949 29.2456L24.9364 32.2351C24.068 32.4632 23.2104 32.5789 22.389 32.5789ZM25.3633 32.1158L23.8328 29.1509L30.1216 29.3789C28.8443 30.6 27.14 31.5789 25.3633 32.1158ZM30.393 28.9719L23.7785 28.7333L25.4538 24.186L30.1433 22.5614L30.393 28.9719ZM33.6351 24.0947C33.0814 25.8211 32.0719 27.4702 30.8127 28.7088L30.5775 22.6105L33.6351 24.0947ZM34.1127 21.2105C34.1127 22.007 33.9933 22.8386 33.7581 23.6842L30.6752 22.1895L34.1127 17.6456V21.2105ZM34.1127 12.7895V16.3579L30.6752 11.814L33.7581 10.3193C33.9933 11.1614 34.1127 11.993 34.1127 12.7895ZM33.6351 9.90526L30.5775 11.3895L30.8127 5.29123C32.0719 6.52982 33.0814 8.18246 33.6351 9.90526ZM30.1433 11.4421L25.4538 9.81754L23.7785 5.27018L30.393 5.03158L30.1433 11.4421ZM30.1216 4.61754L23.8328 4.84561L25.3633 1.8807C27.14 2.42105 28.8443 3.4 30.1216 4.61754ZM22.389 1.42105C23.2104 1.42105 24.068 1.53684 24.94 1.76491L23.3985 4.75439L18.7091 1.42105H22.389ZM13.7048 1.42105H17.3847L12.6989 4.75439L11.1574 1.76491C12.0258 1.53684 12.8834 1.42105 13.7048 1.42105ZM10.7305 1.88421L12.261 4.84912L5.97221 4.62105C7.24951 3.4 8.95379 2.42105 10.7305 1.88421ZM5.70083 5.02807L12.3153 5.26667L10.64 9.81404L5.95049 11.4386L5.70083 5.02807ZM2.45871 9.90526C3.01233 8.17895 4.02187 6.52982 5.28109 5.29123L5.51628 11.3895L2.45871 9.90526ZM1.98108 12.7895C1.98108 11.993 2.1005 11.1614 2.3357 10.3158L5.41858 11.8105L1.98108 16.3579V12.7895ZM1.98108 21.2105V17.6421L5.41858 22.186L2.3357 23.6807C2.1005 22.8386 1.98108 22.007 1.98108 21.2105ZM2.45871 24.0947L5.51628 22.6105L5.28109 28.7088C4.02187 27.4702 3.01233 25.8175 2.45871 24.0947ZM5.95049 22.5579L10.64 24.1825L12.3153 28.7298L5.70083 28.9684L5.95049 22.5579ZM5.97221 29.3825L12.261 29.1544L10.7305 32.1193C8.95379 31.5789 7.24951 30.6 5.97221 29.3825ZM13.7048 32.5789C12.8834 32.5789 12.0258 32.4632 11.1538 32.2351L12.6953 29.2456L17.3811 32.5789H13.7048Z" fill="#464646" stroke="#000000" stroke-width="0.365714"></path></svg>