<svg xmlns:xlink="http://www.w3.org/1999/xlink"  width="35" height="35" viewBox="0 0 35 35" fill="none" xmlns="http://www.w3.org/2000/svg"><path d="M25.5516 6.31559C23.5203 3.18299 20.6585 1.45834 17.5 1.45834C14.3414 1.45834 11.4796 3.18299 9.44835 6.31559C7.52881 9.26573 6.47131 13.2383 6.47131 17.5C6.47131 21.7617 7.52881 25.7343 9.44835 28.6845C11.4796 31.817 14.3414 33.5417 17.5 33.5417C20.6585 33.5417 23.5203 31.817 25.5516 28.6845C27.4712 25.7308 28.5286 21.7583 28.5286 17.5C28.5286 13.2417 27.4712 9.26573 25.5516 6.31559ZM20.6724 28.6569L17.8874 26.4881L21.4054 24.7531L20.6724 28.6569ZM17.5 32.9943L14.4741 29.07L17.5 26.7119L20.5258 29.0665L17.5 32.9943ZM14.3275 28.6569L13.5946 24.7531L17.1126 26.4881L14.3275 28.6569ZM14.3275 6.34312L17.1126 8.51185L13.5946 10.2468L14.3275 6.34312ZM17.5 2.00568L20.5258 5.93004L17.5 8.28809L14.4741 5.93348L17.5 2.00568ZM20.6724 6.34312L21.4054 10.2468L17.8874 8.51185L20.6724 6.34312ZM17.5 26.2197L13.4864 24.2402L11.4377 17.5L13.4864 10.7598L17.5 8.78035L21.5136 10.7598L23.5622 17.5L21.5136 24.2402L17.5 26.2197ZM11.2073 16.8149L9.89857 12.9423L12.9524 11.0764L11.2073 16.8149ZM11.2073 18.1851L12.9524 23.9236L9.89857 22.0577L11.2073 18.1851ZM23.7926 18.1851L25.1013 22.0577L22.0476 23.9236L23.7926 18.1851ZM23.7926 16.8149L22.0476 11.0764L25.1013 12.9423L23.7926 16.8149ZM25.1432 12.4844L21.8765 10.4878L21.0703 6.20199L25.1642 6.61163L25.1432 12.4844ZM13.1234 10.4878L9.85669 12.4844L9.83575 6.61508L13.9296 6.20543L13.1234 10.4878ZM9.58795 13.3313L10.9979 17.5L9.58795 21.6687L6.92851 17.5L9.58795 13.3313ZM9.85669 22.5156L13.1234 24.5122L13.9296 28.798L9.83575 28.3884L9.85669 22.5156ZM21.8765 24.5122L25.1432 22.5156L25.1642 28.385L21.0703 28.7945L21.8765 24.5122ZM25.412 21.6687L24.002 17.5L25.412 13.3313L28.0714 17.5L25.412 21.6687ZM25.562 12.7942L25.583 7.16586C27.1116 9.79931 27.9946 13.1591 28.0993 16.7702L25.562 12.7942ZM24.9547 6.17445L20.9273 5.77169L17.9293 1.88176C20.648 2.02633 23.1155 3.53756 24.9547 6.17445ZM17.0706 1.88176L14.0727 5.77169L10.0452 6.17445C11.8844 3.53756 14.3519 2.02633 17.0706 1.88176ZM9.41694 7.16242L9.43788 12.7908L6.90059 16.7668C7.00529 13.1557 7.88828 9.79931 9.41694 7.16242ZM9.43788 22.2058L9.41694 27.8341C7.88828 25.2007 7.00529 21.8409 6.90059 18.2298L9.43788 22.2058ZM10.0452 28.8255L14.0727 29.2284L17.0706 33.1183C14.3519 32.9737 11.8844 31.4625 10.0452 28.8255ZM17.9293 33.1183L20.9273 29.2284L24.9547 28.8255C23.1155 31.4625 20.648 32.9737 17.9293 33.1183ZM25.583 27.8376L25.562 22.2058L28.0993 18.2298C27.9946 21.8443 27.1116 25.2007 25.583 27.8376Z" fill="#464646" stroke="#464646" stroke-width="0.366667"></path></svg>