<svg xmlns:xlink="http://www.w3.org/1999/xlink"  width="35" height="35" viewBox="0 0 35 35" fill="none" xmlns="http://www.w3.org/2000/svg"><path d="M28.5233 13.6632C28.5233 13.6597 28.5233 13.6563 28.5233 13.653C28.475 10.5178 27.5986 7.74801 25.9839 5.63764C23.8863 2.90499 20.6811 1.4 16.9514 1.4C13.2218 1.4 10.0166 2.90499 7.92234 5.64102C6.30766 7.74801 5.42788 10.5213 5.38302 13.6563C5.36577 14.8942 5.47273 16.1996 5.71079 17.5355C6.08341 19.6493 6.91144 21.8205 8.17765 23.985C11.4933 29.6599 16.7823 33.5222 16.8341 33.5595C16.8478 33.5695 16.8617 33.5729 16.8755 33.5797C16.8824 33.5831 16.8859 33.5865 16.8927 33.5898C16.9135 33.5966 16.9342 33.6 16.9583 33.6C16.9825 33.6 17.0031 33.5966 17.0238 33.5898C17.0308 33.5865 17.0342 33.5831 17.0412 33.5797C17.0549 33.5729 17.0687 33.5695 17.0825 33.5595C17.1342 33.5222 22.4234 29.6599 25.739 23.985C27.0017 21.8205 27.8332 19.6527 28.2024 17.5355C28.4301 16.1996 28.5405 14.901 28.5233 13.6632ZM19.5804 25.9702L17.293 24.5701L20.7258 21.4857L19.5804 25.9702ZM16.9514 32.8255L14.4466 26.376L16.9514 24.8406L19.4563 26.376L16.9514 32.8255ZM14.3224 25.9702L13.1769 21.4857L16.6099 24.5701L14.3224 25.9702ZM12.9182 6.26332L16.2958 7.64317L11.7934 8.7457L12.9182 6.26332ZM16.9514 1.90054L20.7397 5.92174L16.9514 7.47069L13.1631 5.92512L16.9514 1.90054ZM20.9846 6.26332L22.1094 8.7457L17.607 7.64317L20.9846 6.26332ZM16.9514 24.3266L12.9906 20.7653L10.61 13.7646L11.6071 9.20904L16.9514 7.90021L22.2957 9.20904L23.2928 13.7646L20.9122 20.7653L16.9514 24.3266ZM10.3029 13.2438L8.46402 10.3319L11.1517 9.36122L10.3029 13.2438ZM10.3443 14.2685L12.3592 20.1972L8.75728 16.9504L10.3443 14.2685ZM23.5584 14.2685L25.1421 16.9504L21.5435 20.1972L23.5584 14.2685ZM23.6033 13.2438L22.7545 9.36122L25.4422 10.3319L23.6033 13.2438ZM22.6269 8.88098L21.4056 6.18552L25.6079 5.97246L25.5492 9.93616L22.6269 8.88098ZM11.2793 8.88098L8.35706 9.93616L8.29841 5.97246L12.5007 6.18552L11.2793 8.88098ZM7.94649 10.1628L5.82809 12.9935C5.9661 10.4671 6.66993 8.21473 7.89129 6.40536L7.94649 10.1628ZM8.1397 10.5889L10.1546 13.7815L8.46402 16.6427L5.84879 13.6496L8.1397 10.5889ZM8.69517 17.4442L12.6249 20.9886L13.8911 25.9466L8.56407 23.7449L8.69517 17.4442ZM21.2779 20.9886L25.2077 17.4442L25.3422 23.7449L20.0151 25.9466L21.2779 20.9886ZM23.7482 13.7815L25.7631 10.5889L28.0505 13.6462L25.4353 16.6393L23.7482 13.7815ZM25.9563 10.1628L26.0115 6.40536C27.2294 8.21473 27.9367 10.4671 28.0747 12.9935L25.9563 10.1628ZM25.4043 5.58016L21.1778 5.79322L17.4344 1.81599C20.6811 1.93436 23.4826 3.25671 25.4043 5.58016ZM16.4718 1.81599L12.725 5.79322L8.49851 5.58016C10.4203 3.25671 13.2218 1.93436 16.4718 1.81599ZM5.80049 14.2144L8.2915 17.0654L8.16385 23.1192C7.13225 21.2185 6.44567 19.3212 6.1179 17.4679C5.9178 16.3484 5.81774 15.2594 5.80049 14.2144ZM8.85388 24.3063L14.0291 26.4437L16.4925 32.7782C15.0917 31.6587 11.4622 28.5304 8.85388 24.3063ZM17.4102 32.7815L19.8736 26.4471L25.0489 24.3097C22.4406 28.5304 18.811 31.6587 17.4102 32.7815ZM25.7424 23.1158L25.6147 17.0621L28.1058 14.211C28.0885 15.2594 27.9884 16.3484 27.7918 17.4611C27.464 19.3178 26.774 21.2151 25.7424 23.1158Z" fill="#464646" stroke="#000000" stroke-width="0.368"></path></svg>