<svg xmlns:xlink="http://www.w3.org/1999/xlink"  width="37" height="35" viewBox="0 0 37 35" fill="none" xmlns="http://www.w3.org/2000/svg"><path d="M34.5433 1.18435C34.5433 1.17739 34.5433 1.16696 34.5433 1.16C34.5433 1.15652 34.5397 1.15304 34.5397 1.14957C34.5361 1.13913 34.5326 1.1287 34.5254 1.11478C34.5218 1.10435 34.5146 1.09391 34.5074 1.08696C34.5003 1.07652 34.4931 1.06957 34.4823 1.06261C34.4752 1.05565 34.4644 1.04522 34.4572 1.03826C34.4465 1.0313 34.4393 1.02783 34.4285 1.02087C34.4178 1.01391 34.407 1.01043 34.3927 1.00696C34.3891 1.00696 34.3855 1.00348 34.3819 1.00348C34.3747 1 34.3676 1.00348 34.3568 1.00348C34.346 1.00348 34.3389 1 34.3317 1H1.76209C1.75491 1 1.74774 1.00348 1.73698 1.00696C1.7298 1.00696 1.72263 1.00696 1.71187 1.00696C1.70828 1.00696 1.70471 1.01043 1.70112 1.01043C1.69036 1.01391 1.6796 1.02087 1.66884 1.02435C1.65808 1.0313 1.64731 1.03478 1.64014 1.04174C1.62938 1.0487 1.6222 1.05565 1.61144 1.06261C1.60426 1.07304 1.5971 1.08 1.58992 1.09043C1.58275 1.09739 1.57916 1.10783 1.57199 1.11826C1.5684 1.1287 1.56122 1.13913 1.55763 1.15304C1.55763 1.15652 1.55404 1.16 1.55404 1.16348C1.55046 1.17043 1.55404 1.18087 1.55404 1.18783C1.55046 1.19478 1.54688 1.20174 1.54688 1.2087V32.7913C1.54688 32.7983 1.55046 32.8087 1.55046 32.8157C1.55046 32.8226 1.55046 32.833 1.55046 32.84C1.55046 32.8435 1.55404 32.847 1.55404 32.8504C1.55763 32.8609 1.56123 32.8713 1.5684 32.8852C1.57199 32.8957 1.57915 32.9061 1.58633 32.913C1.5935 32.9235 1.60067 32.9304 1.61144 32.9374C1.61861 32.9443 1.62937 32.9548 1.63654 32.9617C1.6473 32.9687 1.65449 32.9722 1.66525 32.9791C1.67601 32.9861 1.68677 32.9896 1.70112 32.993C1.70471 32.993 1.70828 32.9965 1.71187 32.9965C1.7298 32.9965 1.74774 33 1.76209 33H34.3317C34.3496 33 34.364 32.9965 34.3819 32.993C34.3855 32.993 34.3891 32.9896 34.3927 32.9896C34.4034 32.9861 34.4142 32.9826 34.4285 32.9757C34.4393 32.9722 34.4501 32.9652 34.4572 32.9583C34.468 32.9513 34.4752 32.9443 34.4823 32.9339C34.4895 32.927 34.5003 32.9165 34.5074 32.9096C34.5146 32.8991 34.5182 32.8922 34.5254 32.8817C34.5326 32.8713 34.5361 32.8609 34.5397 32.847C34.5397 32.8435 34.5433 32.84 34.5433 32.8365C34.5469 32.8296 34.5433 32.8191 34.5433 32.8122C34.5433 32.8052 34.5469 32.7983 34.5469 32.7878V1.2087C34.5469 1.20174 34.5433 1.19478 34.5433 1.18435ZM11.4899 28.4435L18.0469 26.0922L24.6074 28.447H11.4899V28.4435ZM24.6039 5.55652L18.0469 7.90783L11.4864 5.55652H24.6039ZM29.848 23.3583L27.4232 17L29.8516 10.6383V23.3583H29.848ZM25.1598 23.8974L18.0469 25.6539L10.934 23.8974L9.12253 17L10.934 10.1026L18.0469 8.34609L25.1598 10.1026L26.9712 17L25.1598 23.8974ZM1.97731 2.09217L5.81177 9.52174V24.4783L1.97731 31.9078V2.09217ZM6.24579 10.6417L8.67058 17L6.24579 23.3617V10.6417ZM8.86067 16.3009L6.34622 9.71652L10.4856 10.1165L8.86067 16.3009ZM8.86067 17.6991L10.4856 23.8835L6.34622 24.2835L8.86067 17.6991ZM27.2331 16.3009L25.6082 10.1165L29.7476 9.71652L27.2331 16.3009ZM27.2331 17.6991L29.7476 24.2835L25.6082 23.8835L27.2331 17.6991ZM34.1165 31.9078L30.282 24.4783V9.52174L34.1165 2.09217V31.9078ZM29.9269 9.27826L25.5759 9.69913L26.0099 5.48L33.8474 1.67826L29.9269 9.27826ZM25.1455 9.6713L18.7679 8.09565L25.558 5.65739L25.1455 9.6713ZM17.3259 8.09217L10.9483 9.66783L10.5358 5.65391L17.3259 8.09217ZM6.16687 9.27826L2.24634 1.67826L10.0838 5.48L10.5179 9.69913L6.16687 9.27826ZM6.16687 24.7217L10.5179 24.3009L10.0838 28.52L2.24634 32.3217L6.16687 24.7217ZM10.9483 24.3287L17.3259 25.9043L10.5358 28.3426L10.9483 24.3287ZM18.7679 25.9078L25.1455 24.3322L25.558 28.3461L18.7679 25.9078ZM29.9269 24.7217L33.851 32.3217L26.0099 28.52L25.5759 24.3009L29.9269 24.7217ZM33.4206 1.41739L25.7589 5.13565H10.3349L2.67318 1.41739H33.4206ZM2.67318 32.5826L10.3349 28.8643H25.7589L33.4206 32.5826H2.67318Z" fill="#464646" stroke="#000000" stroke-width="0.365714"></path></svg>