<svg xmlns:xlink="http://www.w3.org/1999/xlink"  width="35" height="35" viewBox="0 0 35 35" fill="none" xmlns="http://www.w3.org/2000/svg"><path d="M29.4531 5.41706C29.4531 5.39952 29.4461 5.38198 29.4426 5.36794C29.4391 5.35742 29.4391 5.34689 29.4355 5.33637C29.4355 5.33286 29.4355 5.33286 29.4355 5.32935C29.4285 5.31532 29.418 5.30479 29.4074 5.29427C29.4004 5.28725 29.3969 5.27672 29.3899 5.26971L24.8246 1.05964C24.8176 1.05263 24.8071 1.04912 24.7965 1.0421C24.7895 1.03859 24.7825 1.03158 24.7755 1.02456C24.772 1.02456 24.7685 1.02456 24.7649 1.02105C24.7509 1.01403 24.7333 1.01053 24.7193 1.00702C24.7088 1.00351 24.6982 1 24.6877 1C24.6842 1 24.6842 1 24.6807 1H9.22556C9.22205 1 9.22205 1 9.21854 1C9.208 1 9.19747 1.00351 9.18693 1.00702C9.17288 1.01053 9.15533 1.01403 9.14128 1.01754C9.13777 1.01754 9.13425 1.01754 9.13074 1.02105C9.12372 1.02456 9.1167 1.03158 9.10967 1.03859C9.09914 1.04561 9.0886 1.04912 9.08158 1.05613L4.51634 5.2662C4.50932 5.27322 4.50581 5.28374 4.49878 5.29076C4.48825 5.30128 4.47771 5.31181 4.47069 5.32584C4.47069 5.32935 4.47069 5.32935 4.47069 5.33286C4.46718 5.34338 4.46367 5.35391 4.46367 5.36443C4.46015 5.38198 4.45312 5.39601 4.45312 5.41355C4.45312 5.41706 4.45312 5.41706 4.45312 5.42057V28.5759C4.45312 28.5794 4.45312 28.5794 4.45312 28.5829C4.45312 28.6005 4.46015 28.6145 4.46367 28.6321C4.46718 28.6426 4.46718 28.6531 4.47069 28.6636C4.47069 28.6671 4.47069 28.6671 4.47069 28.6707C4.4742 28.6742 4.4777 28.6777 4.48121 28.6812C4.49175 28.6987 4.50229 28.7163 4.51634 28.7303L9.08158 32.9404C9.0886 32.9474 9.09914 32.9509 9.10967 32.9579C9.1167 32.9614 9.12372 32.9684 9.13074 32.9754C9.13425 32.9754 9.13777 32.9754 9.13777 32.9789C9.16586 32.9895 9.19395 33 9.22205 33H24.6736C24.7052 33 24.7333 32.993 24.7579 32.9789C24.7614 32.9789 24.7649 32.9789 24.7649 32.9754C24.772 32.9719 24.779 32.9649 24.786 32.9579C24.7965 32.9509 24.8071 32.9474 24.8141 32.9404L29.3794 28.7303C29.3934 28.7163 29.4039 28.6987 29.4145 28.6812C29.418 28.6777 29.4215 28.6742 29.425 28.6707C29.425 28.6671 29.425 28.6671 29.425 28.6636C29.4285 28.6531 29.432 28.6426 29.432 28.6321C29.4355 28.6145 29.4426 28.6005 29.4426 28.5829C29.4426 28.5794 29.4426 28.5794 29.4426 28.5759V5.42408C29.4531 5.42057 29.4531 5.42057 29.4531 5.41706ZM24.7404 32.4457L23.8835 30.7336L27.1705 27.7795L28.8772 28.6321L24.7404 32.4457ZM9.5662 32.579L10.409 30.895H23.4937L24.3365 32.579H9.5662ZM5.02553 28.6321L6.73223 27.7795L10.0192 30.7336L9.16235 32.4457L5.02553 28.6321ZM4.87102 5.76439L6.55665 6.6064V27.3971L4.87102 28.2391V5.76439ZM9.16235 1.55783L10.0192 3.26993L6.73223 6.22399L5.02553 5.37145L9.16235 1.55783ZM24.3365 1.42451L23.4937 3.10854H10.409L9.5662 1.42451H24.3365ZM28.8772 5.37145L27.1705 6.22399L23.8835 3.26993L24.7404 1.55783L28.8772 5.37145ZM11.459 30.474L16.9513 28.4531L22.4437 30.474H11.459ZM22.4437 3.52955L16.9513 5.55038L11.459 3.52955H22.4437ZM16.9513 28.0181L10.4828 27.3375L10.1386 17.0018L10.4828 6.66605L16.9513 5.98542L23.4199 6.66605L23.7641 17.0018L23.4199 27.3375L16.9513 28.0181ZM23.4129 6.24153L17.8714 5.65914L23.4129 3.62077V6.24153ZM10.4898 6.24153V3.62077L16.0313 5.65914L10.4898 6.24153ZM9.75934 15.7107L7.0518 6.6871H10.0614L9.75934 15.7107ZM10.0614 27.3164H7.0518L9.76285 18.2928L10.0614 27.3164ZM10.4898 27.762L16.0313 28.3444L10.4898 30.3827V27.762ZM23.4129 27.762V30.3827L17.8714 28.3444L23.4129 27.762ZM24.1434 18.2928L26.8544 27.3164H23.8449L24.1434 18.2928ZM23.8414 6.6871H26.8509L24.1399 15.7107L23.8414 6.6871ZM23.8343 6.26609V3.79268L26.5875 6.26609H23.8343ZM10.0684 6.26609H7.31518L10.0684 3.79268V6.26609ZM6.97805 7.91152L9.70667 17.0018L6.97805 26.092V7.91152ZM10.0684 27.7374V30.2108L7.31518 27.7374H10.0684ZM23.8343 27.7374H26.5875L23.8343 30.2108V27.7374ZM26.9247 26.092L24.196 17.0018L26.9247 7.91152V26.092ZM27.3461 27.3971V6.6064L29.0317 5.76439V28.2391L27.3461 27.3971Z" fill="#464646" stroke="#464646" stroke-width="0.365714"></path></svg>