<svg xmlns:xlink="http://www.w3.org/1999/xlink"  width="35" height="35" viewBox="0 0 35 35" fill="none" xmlns="http://www.w3.org/2000/svg"><g clip-path="url(#clip0_162_8409)"><path d="M33.9634 5.19946C33.9634 5.185 33.9598 5.17055 33.9562 5.1561C33.9526 5.14163 33.9453 5.13079 33.9381 5.11634C33.9345 5.10911 33.9345 5.10189 33.9309 5.09827C33.9273 5.09105 33.9201 5.08743 33.9164 5.08382C33.9128 5.0766 33.9091 5.07298 33.9055 5.06576L29.932 1.09085C29.9284 1.08723 29.9211 1.08361 29.9139 1.08C29.9067 1.07638 29.9067 1.06916 29.8995 1.06554C29.8923 1.06193 29.885 1.06193 29.8814 1.05832C29.8669 1.05109 29.8561 1.04748 29.8416 1.04025C29.8272 1.03664 29.8128 1.03302 29.8019 1.03302C29.7947 1.03302 29.7875 1.02941 29.7839 1.02941H5.21254C5.20532 1.02941 5.19809 1.03302 5.19448 1.03302C5.18003 1.03302 5.16558 1.03664 5.15475 1.04025C5.14029 1.04386 5.12584 1.05109 5.11501 1.05832C5.10778 1.06193 5.10056 1.06193 5.09694 1.06554C5.08972 1.06916 5.0861 1.07638 5.08249 1.08C5.07527 1.08361 5.06805 1.08723 5.06444 1.09085L1.09083 5.06576C1.08722 5.06937 1.08361 5.0766 1.07999 5.08382C1.07638 5.09105 1.06915 5.09105 1.06554 5.09827C1.06193 5.1055 1.06193 5.11273 1.05831 5.11634C1.05109 5.13079 1.04749 5.14163 1.04026 5.1561C1.03665 5.17055 1.03303 5.18139 1.03303 5.19584C1.03303 5.20307 1.02942 5.2103 1.02942 5.21391V29.7861C1.02942 29.7933 1.03303 29.8005 1.03303 29.8041C1.03303 29.8187 1.03665 29.8331 1.04026 29.8439C1.04387 29.8584 1.05109 29.8728 1.05831 29.8836C1.06193 29.8909 1.06193 29.8981 1.06554 29.9017C1.06915 29.9053 1.07277 29.9089 1.07638 29.9125C1.07999 29.9198 1.08361 29.9271 1.09083 29.9343L5.06444 33.9091C5.06805 33.9127 5.07527 33.9163 5.08249 33.92C5.08972 33.9236 5.08972 33.9309 5.09694 33.9345C5.10056 33.9381 5.10778 33.9345 5.1114 33.9381C5.14391 33.9562 5.18003 33.9706 5.21615 33.9706H29.7803C29.82 33.9706 29.8525 33.9562 29.885 33.9381C29.8887 33.9345 29.8959 33.9381 29.8995 33.9345C29.9067 33.9309 29.9103 33.9236 29.9139 33.92C29.9211 33.9163 29.9247 33.9127 29.932 33.9091L33.9055 29.9343C33.9128 29.9271 33.9128 29.9198 33.9201 29.9125C33.9237 29.9089 33.9309 29.9053 33.9345 29.9017C33.9381 29.8945 33.9381 29.8873 33.9417 29.8836C33.9489 29.8692 33.9526 29.8584 33.9598 29.8439C33.9634 29.8295 33.967 29.815 33.967 29.8005C33.967 29.7933 33.9706 29.7861 33.9706 29.7825V5.21752C33.967 5.2103 33.9634 5.20307 33.9634 5.19946ZM29.8092 33.4249L28.6098 31.6254L31.6081 28.6261L33.4071 29.8259L29.8092 33.4249ZM5.61713 33.5478L6.77308 31.8133H28.2161L29.372 33.5478H5.61713ZM1.5785 29.8223L3.37746 28.6225L6.37572 31.6218L5.17641 33.4213L1.5785 29.8223ZM1.45568 5.62225L3.18962 6.77858V28.2286L1.45568 29.385V5.62225ZM5.18003 1.58229L6.37933 3.38183L3.38107 6.38109L1.58211 5.18139L5.18003 1.58229ZM29.372 1.45943L28.2161 3.19393H6.77308L5.61713 1.45943H29.372ZM33.4107 5.185L31.6117 6.3847L28.6134 3.38545L29.8128 1.5859L33.4107 5.185ZM8.13494 31.3797L17.4946 28.5719L26.8543 31.3797H8.13494ZM26.8543 3.62755L17.4946 6.4353L8.13494 3.62755H26.8543ZM27.407 27.4192L17.4946 28.1274L7.58225 27.4192L6.87423 17.5036L7.58225 7.58802L17.4946 6.87975L27.407 7.58802L28.115 17.5036L27.407 27.4192ZM27.4322 7.15439L18.6903 6.52924L28.0571 3.7179L27.4322 7.15439ZM7.55697 7.15439L6.93202 3.7179L16.2989 6.52924L7.55697 7.15439ZM6.52383 16.3075L3.7134 6.93758L7.14877 7.56272L6.52383 16.3075ZM7.14877 27.4445L3.7134 28.0697L6.52383 18.6997L7.14877 27.4445ZM7.55697 27.8528L16.2989 28.478L6.93202 31.2894L7.55697 27.8528ZM27.4322 27.8528L28.0571 31.2894L18.6903 28.478L27.4322 27.8528ZM28.4653 18.6997L31.2758 28.0697L27.8404 27.4445L28.4653 18.6997ZM27.8404 7.56272L31.2758 6.93758L28.4653 16.3075L27.8404 7.56272ZM27.8802 7.11463L28.4726 3.85521L31.1385 6.52201L27.8802 7.11463ZM7.11265 7.11463L3.85429 6.52201L6.52022 3.85521L7.11265 7.11463ZM3.62309 8.14089L6.42991 17.5036L3.62309 26.8663V8.14089ZM7.11265 27.8926L6.52022 31.1521L3.85429 28.4852L7.11265 27.8926ZM27.8802 27.8926L31.1385 28.4852L28.4726 31.1521L27.8802 27.8926ZM31.3661 26.8663L28.5593 17.5036L31.3661 8.14089V26.8663ZM31.7996 28.2286V6.77858L33.5335 5.62225V29.385L31.7996 28.2286Z" fill="#464646" stroke="#000000" stroke-width="0.376471"></path></g><defs><clipPath id="clip0_162_8409"><rect width="35" height="35" fill="white"></rect></clipPath></defs></svg>