<svg xmlns:xlink="http://www.w3.org/1999/xlink"  width="88" height="36" viewBox="0 0 88 36" fill="none" xmlns="http://www.w3.org/2000/svg"><g clip-path="url(#clip0_162_11556)"><path d="M4.01244 21.4909H3.79556C1.73511 21.4909 0 19.7454 0 17.6727C0 15.5999 1.73511 13.8545 3.79556 13.8545H4.01244C6.07289 13.8545 7.808 15.5999 7.808 17.6727C7.808 19.7454 6.07289 21.4909 4.01244 21.4909ZM3.79556 14.9454C2.27733 14.9454 1.08444 16.1454 1.08444 17.6727C1.08444 19.1999 2.27733 20.3999 3.79556 20.3999H4.01244C5.53067 20.3999 6.72356 19.1999 6.72356 17.6727C6.72356 16.1454 5.53067 14.9454 4.01244 14.9454H3.79556Z" fill="#ffffff"></path><path d="M43.9199 36C39.1484 36 34.5937 34.1455 31.2319 30.7636L31.1235 30.5455C27.8702 27.1636 26.0266 22.6909 26.0266 18C26.0266 13.2 27.8702 8.72727 31.2319 5.23636C34.5937 1.85455 39.1484 0 43.9199 0C48.6915 0 53.1377 1.85455 56.6079 5.23636C59.6444 8.29091 61.4879 12.2182 61.8133 16.4727C61.8133 17.0182 61.9217 17.4545 61.9217 18C61.9217 18.3273 61.9217 18.5455 61.9217 18.8727C61.7048 23.3455 59.8613 27.6 56.7164 30.7636C53.1377 34.1455 48.6915 36 43.9199 36ZM32.2079 30.1091C35.3528 33.1636 39.4737 34.9091 43.9199 34.9091C48.3662 34.9091 52.5955 33.1636 55.8488 30C58.7768 27.0545 60.5119 23.0182 60.7288 18.8727C60.7288 18.6545 60.7288 18.3273 60.7288 18.1091C60.7288 17.6727 60.7288 17.1273 60.6204 16.6909C60.2951 12.7636 58.5599 8.94545 55.7404 6.10909C52.5955 2.83636 48.3662 1.09091 43.9199 1.09091C39.3653 1.09091 35.2444 2.83636 31.9911 6C28.8462 9.16364 27.1111 13.4182 27.1111 18C27.1111 22.4727 28.8462 26.7273 31.9911 29.8909L32.2079 30.1091ZM43.9199 27.8182C41.3173 27.8182 38.8231 26.8364 36.9795 24.9818L36.8711 24.7636C35.1359 22.9091 34.1599 20.5091 34.1599 18C34.1599 15.3818 35.1359 12.8727 36.9795 11.0182C38.8231 9.16364 41.2088 8.18182 43.9199 8.18182C46.5226 8.18182 49.0168 9.16364 50.7519 11.0182C52.5955 12.8727 53.5715 15.2727 53.5715 18C53.5715 20.5091 52.5955 22.9091 50.8604 24.7636L50.7519 24.9818C49.0168 26.7273 46.5226 27.8182 43.9199 27.8182ZM37.9555 24.3273C39.5822 25.8545 41.6426 26.7273 43.9199 26.7273C46.1973 26.7273 48.2577 25.8545 49.8844 24.3273L49.9928 24.2182C51.6195 22.5818 52.4871 20.4 52.4871 18.1091C52.4871 15.8182 51.6195 13.6364 49.9928 12C48.3662 10.3636 46.1973 9.49091 43.9199 9.49091C41.6426 9.49091 39.4737 10.3636 37.8471 12C36.2204 13.6364 35.3528 15.8182 35.3528 18.1091C35.3528 20.4 36.2204 22.5818 37.8471 24.2182L37.9555 24.3273Z" fill="#ffffff"></path><path d="M44.4621 27.2727H43.3777V35.4545H44.4621V27.2727Z" fill="#ffffff"></path><path d="M44.4621 0.54541H43.3777V8.72723H44.4621V0.54541Z" fill="#ffffff"></path><path d="M34.7022 17.4546H26.5688V18.5455H34.7022V17.4546Z" fill="#ffffff"></path><path d="M61.271 17.4546H53.1377V18.5455H61.271V17.4546Z" fill="#ffffff"></path><path d="M36.9795 11.8909L31.2319 5.99996L31.991 5.23633L37.847 11.0181L36.9795 11.8909Z" fill="#ffffff"></path><path d="M50.8388 24.1221L50.0728 24.8943L55.8295 30.6739L56.5956 29.9018L50.8388 24.1221Z" fill="#ffffff"></path><path d="M43.9199 27.8182C41.3172 27.8182 38.823 26.8364 36.9795 24.9819L36.871 24.7637C35.1359 22.9092 34.1599 20.5092 34.1599 18.0001C34.1599 15.3819 35.1359 12.8728 36.9795 11.0182C38.823 9.1637 41.2088 8.18188 43.9199 8.18188C46.5226 8.18188 49.0168 9.1637 50.7519 11.0182C52.5955 12.8728 53.5715 15.2728 53.5715 18.0001C53.5715 20.5092 52.5955 22.9092 50.8604 24.7637L50.7519 24.9819C49.0168 26.7273 46.5226 27.8182 43.9199 27.8182ZM37.9555 24.3273C39.5821 25.8546 41.6426 26.7273 43.9199 26.7273C46.1972 26.7273 48.2577 25.8546 49.8844 24.3273L49.9928 24.2183C51.6195 22.5819 52.487 20.4001 52.487 18.1092C52.487 15.8182 51.6195 13.6364 49.9928 12.0001C48.3661 10.3637 46.1972 9.49098 43.9199 9.49098C41.6426 9.49098 39.4737 10.3637 37.847 12.0001C36.2204 13.6364 35.3528 15.8182 35.3528 18.1092C35.3528 20.4001 36.2204 22.5819 37.847 24.2183L37.9555 24.3273Z" fill="#ffffff"></path><path d="M55.7616 5.24393L50.0105 11.0293L50.7773 11.8007L56.5284 6.01532L55.7616 5.24393Z" fill="#ffffff"></path><path d="M31.6658 30.8728V30.3273H31.1235V30.1091L31.232 29.8909L36.9795 24.1091L37.8471 24.9819L32.208 30.5455V30.8728H31.6658Z" fill="#ffffff"></path><path d="M84.0444 21.4909H83.8275C81.7671 21.4909 80.032 19.7454 80.032 17.6727C80.032 15.5999 81.7671 13.8545 83.8275 13.8545H84.0444C86.1049 13.8545 87.84 15.5999 87.84 17.6727C87.84 19.7454 86.1049 21.4909 84.0444 21.4909ZM83.8275 14.9454C82.3093 14.9454 81.1164 16.1454 81.1164 17.6727C81.1164 19.1999 82.3093 20.3999 83.8275 20.3999H84.0444C85.5626 20.3999 86.7555 19.1999 86.7555 17.6727C86.7555 16.1454 85.5626 14.9454 84.0444 14.9454H83.8275Z" fill="#ffffff"></path><path d="M71.031 28.0364C68.3199 28.0364 65.8257 26.9454 63.9822 25.0909L63.8737 24.8727C62.1386 23.0182 61.1626 20.6182 61.1626 18C61.1626 15.3818 62.247 12.8727 64.0906 10.9091C65.9341 9.05453 68.4284 7.96362 71.1395 7.96362C73.7421 7.96362 76.2364 9.05453 78.1884 10.9091C79.815 12.5454 80.8995 14.8364 81.1164 17.1273C81.1164 17.4545 81.1164 17.6727 81.1164 18C81.1164 18.1091 81.1164 18.3273 81.1164 18.4363C81.0079 20.9454 79.9235 23.2364 78.1884 25.0909C76.1279 26.9454 73.6337 28.0364 71.031 28.0364ZM64.9582 24.4363C66.5848 26.0727 68.7537 26.8363 71.031 26.8363C73.4168 26.8363 75.5857 25.9636 77.3208 24.2182C78.839 22.6909 79.815 20.5091 79.9235 18.3273C79.9235 18.2182 79.9235 18.1091 79.9235 17.8909C79.9235 17.6727 79.9235 17.3454 79.9235 17.1273C79.7066 15.0545 78.839 13.0909 77.3208 11.5636C75.6942 9.92726 73.4168 8.94544 71.031 8.94544C68.6453 8.94544 66.4764 9.81817 64.7413 11.5636C63.1146 13.2 62.1386 15.4909 62.1386 17.8909C62.1386 20.2909 63.0062 22.4727 64.7413 24.2182L64.9582 24.4363ZM71.031 23.5636C69.5128 23.5636 68.2115 23.0182 67.127 21.9273L67.0186 21.7091C66.0426 20.7273 65.6088 19.3091 65.6088 18C65.6088 16.4727 66.151 15.1636 67.2355 14.0727C68.3199 12.9818 69.6213 12.4363 71.1395 12.4363C72.6577 12.4363 73.959 12.9818 75.0435 14.0727C76.1279 15.1636 76.6701 16.4727 76.6701 18C76.6701 19.4182 76.1279 20.7273 75.2604 21.7091L75.1519 21.9273C73.8506 23.0182 72.5493 23.5636 71.031 23.5636ZM67.9946 21.2727C69.6213 22.8 72.4408 22.8 74.0675 21.2727L74.1759 21.1636C75.0435 20.2909 75.4773 19.2 75.4773 18C75.4773 16.8 75.0435 15.7091 74.1759 14.8364C73.3084 13.9636 72.2239 13.5273 71.031 13.5273C69.8382 13.5273 68.7537 13.9636 67.8861 14.8364C67.0186 15.7091 66.5848 16.8 66.5848 18C66.5848 19.2 67.0186 20.2909 67.8861 21.1636L67.9946 21.2727Z" fill="#ffffff"></path><path d="M71.5732 23.0181H70.4888V27.4908H71.5732V23.0181Z" fill="#ffffff"></path><path d="M71.5732 8.50903H70.4888V12.9818H71.5732V8.50903Z" fill="#ffffff"></path><path d="M66.0427 17.4546H61.5964V18.5455H66.0427V17.4546Z" fill="#ffffff"></path><path d="M80.4658 18.5455H76.0195V17.4546H80.3573L80.4658 18.5455Z" fill="#ffffff"></path><path d="M67.1271 14.8365L63.9822 11.6728L64.7413 10.9092L67.8862 14.0728L67.1271 14.8365Z" fill="#ffffff"></path><path d="M74.9028 21.1004L74.1367 21.8726L77.2838 25.0321L78.0498 24.2599L74.9028 21.1004Z" fill="#ffffff"></path><path d="M71.0311 23.5636C69.5129 23.5636 68.2116 23.0181 67.1271 21.9272L67.0187 21.709C66.0427 20.7272 65.6089 19.309 65.6089 17.9999C65.6089 16.4726 66.1511 15.1636 67.2356 14.0726C68.32 12.9817 69.6213 12.4363 71.1396 12.4363C72.6578 12.4363 73.9591 12.9817 75.0435 14.0726C76.128 15.1636 76.6702 16.4726 76.6702 17.9999C76.6702 19.4181 76.128 20.7272 75.2604 21.709L75.152 21.9272C73.8507 23.0181 72.5493 23.5636 71.0311 23.5636ZM67.9947 21.2726C69.6213 22.7999 72.4409 22.7999 74.0676 21.2726L74.176 21.1636C75.0436 20.2908 75.4773 19.1999 75.4773 17.9999C75.4773 16.7999 75.0436 15.709 74.176 14.8363C73.3084 13.9636 72.224 13.5272 71.0311 13.5272C69.8382 13.5272 68.7538 13.9636 67.8862 14.8363C67.0187 15.709 66.5849 16.7999 66.5849 17.9999C66.5849 19.1999 67.0187 20.2908 67.8862 21.1636L67.9947 21.2726Z" fill="#ffffff"></path><path d="M77.2621 10.9347L74.1182 14.0974L74.885 14.8688L78.0289 11.7061L77.2621 10.9347Z" fill="#ffffff"></path><path d="M64.416 25.1999V24.6545H63.8738V24.4363L63.9822 24.3272L67.1271 21.1636L67.8862 21.9272L64.9582 24.8727V25.1999H64.416Z" fill="#ffffff"></path><path d="M16.8089 28.0364C14.0978 28.0364 11.6035 26.9454 9.75998 25.0909L9.65154 24.8727C7.91643 23.0182 6.94043 20.6182 6.94043 18C6.94043 15.3818 8.02487 12.8727 9.86843 10.9091C11.712 9.05453 14.2062 7.96362 16.9173 7.96362C19.52 7.96362 22.0142 9.05453 23.9662 10.9091C25.5929 12.5454 26.6773 14.8364 26.8942 17.1273C26.8942 17.4545 26.8942 17.6727 26.8942 18C26.8942 18.1091 26.8942 18.3273 26.8942 18.4363C26.7858 20.9454 25.7013 23.2364 23.9662 25.0909C21.9058 26.9454 19.4115 28.0364 16.8089 28.0364ZM10.736 24.4363C12.3627 26.0727 14.5315 26.8363 16.8089 26.8363C19.1947 26.8363 21.3635 25.9636 23.0986 24.2182C24.6169 22.6909 25.5929 20.5091 25.7013 18.3273C25.7013 18.2182 25.7013 18.1091 25.7013 17.8909C25.7013 17.6727 25.7013 17.3454 25.7013 17.1273C25.4844 15.0545 24.6169 13.0909 23.0986 11.5636C21.472 9.92726 19.1947 8.94544 16.8089 8.94544C14.4231 8.94544 12.2542 9.81817 10.5191 11.5636C8.89243 13.2 7.91643 15.4909 7.91643 17.8909C7.91643 20.2909 8.78398 22.4727 10.5191 24.2182L10.736 24.4363ZM16.8089 23.5636C15.2907 23.5636 13.9893 23.0182 12.9049 21.9273L12.7964 21.7091C11.8204 20.7273 11.3867 19.3091 11.3867 18C11.3867 16.4727 11.9289 15.1636 13.0133 14.0727C14.0978 12.9818 15.3991 12.4363 16.9173 12.4363C18.4355 12.4363 19.7369 12.9818 20.8213 14.0727C21.9058 15.1636 22.448 16.4727 22.448 18C22.448 19.4182 21.9058 20.7273 21.0382 21.7091L20.9298 21.9273C19.6284 23.0182 18.3271 23.5636 16.8089 23.5636ZM13.7724 21.2727C15.3991 22.8 18.2187 22.8 19.8453 21.2727L19.9538 21.1636C20.8213 20.2909 21.2551 19.2 21.2551 18C21.2551 16.8 20.8213 15.7091 19.9538 14.8364C19.0862 13.9636 18.0018 13.5273 16.8089 13.5273C15.616 13.5273 14.5315 13.9636 13.664 14.8364C12.7964 15.7091 12.3627 16.8 12.3627 18C12.3627 19.2 12.7964 20.2909 13.664 21.1636L13.7724 21.2727Z" fill="#ffffff"></path><path d="M17.351 23.0181H16.2666V27.4908H17.351V23.0181Z" fill="#ffffff"></path><path d="M17.351 8.50903H16.2666V12.9818H17.351V8.50903Z" fill="#ffffff"></path><path d="M11.8205 17.4546H7.37427V18.5455H11.8205V17.4546Z" fill="#ffffff"></path><path d="M26.2436 18.5455H21.7974V17.4546H26.1351L26.2436 18.5455Z" fill="#ffffff"></path><path d="M12.9049 14.8365L9.76001 11.6728L10.5191 10.9092L13.664 14.0728L12.9049 14.8365Z" fill="#ffffff"></path><path d="M20.683 21.1021L19.917 21.8743L23.064 25.0338L23.8301 24.2617L20.683 21.1021Z" fill="#ffffff"></path><path d="M16.8089 23.5636C15.2907 23.5636 13.9894 23.0181 12.9049 21.9272L12.7965 21.709C11.8205 20.7272 11.3867 19.309 11.3867 17.9999C11.3867 16.4726 11.9289 15.1636 13.0134 14.0726C14.0978 12.9817 15.3992 12.4363 16.9174 12.4363C18.4356 12.4363 19.7369 12.9817 20.8214 14.0726C21.9058 15.1636 22.4481 16.4726 22.4481 17.9999C22.4481 19.4181 21.9058 20.7272 21.0383 21.709L20.9298 21.9272C19.6285 23.0181 18.3272 23.5636 16.8089 23.5636ZM13.7725 21.2726C15.3992 22.7999 18.2187 22.7999 19.8454 21.2726L19.9538 21.1636C20.8214 20.2908 21.2552 19.1999 21.2552 17.9999C21.2552 16.7999 20.8214 15.709 19.9538 14.8363C19.0863 13.9636 18.0018 13.5272 16.8089 13.5272C15.6161 13.5272 14.5316 13.9636 13.6641 14.8363C12.7965 15.709 12.3627 16.7999 12.3627 17.9999C12.3627 19.1999 12.7965 20.2908 13.6641 21.1636L13.7725 21.2726Z" fill="#ffffff"></path><path d="M23.0404 10.9343L19.8965 14.0969L20.6633 14.8683L23.8072 11.7056L23.0404 10.9343Z" fill="#ffffff"></path><path d="M10.1938 25.1999V24.6545H9.65161V24.4363L9.76006 24.3272L12.9049 21.1636L13.6641 21.9272L10.7361 24.8727V25.1999H10.1938Z" fill="#ffffff"></path></g><defs><clipPath id="clip0_162_11556"><rect width="87.84" height="36" fill="white"></rect></clipPath></defs></svg>