<svg xmlns:xlink="http://www.w3.org/1999/xlink"  width="35" height="35" viewBox="0 0 35 35" fill="none" xmlns="http://www.w3.org/2000/svg"><g clip-path="url(#clip0_162_8383)"><path d="M33.9705 11.8523C33.9705 5.70818 30.8407 3.10497 28.9757 2.10207C26.2676 0.639344 22.9269 0.67917 20.2545 2.19258C20.251 2.19258 20.2474 2.1962 20.2474 2.1962C19.1326 2.82981 18.193 3.71323 17.4999 4.75596C16.8068 3.71323 15.8636 2.82981 14.7524 2.1962C14.7488 2.1962 14.7452 2.19258 14.7452 2.19258C12.0764 0.675549 8.73582 0.639344 6.02764 2.10207C4.15907 3.10497 1.0293 5.70818 1.0293 11.8523C1.0293 13.2861 1.24009 14.738 1.65096 16.1681C2.65135 19.633 4.90221 23.1269 8.34281 26.5556C11.0724 29.2783 13.9735 31.4181 16.0922 32.9785C16.5674 33.3298 16.9997 33.6448 17.3712 33.9308C17.3856 33.9417 17.3998 33.9489 17.4141 33.9525C17.4213 33.9561 17.4249 33.9597 17.432 33.9597C17.4535 33.967 17.4785 33.9706 17.4999 33.9706C17.5213 33.9706 17.5463 33.967 17.5678 33.9597C17.5749 33.9561 17.5785 33.9525 17.5856 33.9525C17.6 33.9453 17.6142 33.938 17.6285 33.9308C18.0001 33.6484 18.4324 33.3298 18.9075 32.9785C21.0262 31.4181 23.9274 29.2819 26.657 26.5556C30.094 23.1269 32.3448 19.633 33.3489 16.1681C33.7597 14.738 33.9705 13.2861 33.9705 11.8523ZM33.5418 11.8523C33.5418 13.0978 33.3703 14.3542 33.0487 15.5997L28.6148 9.25275L29.065 2.6524C31.9519 4.36132 33.5418 7.609 33.5418 11.8523ZM17.85 23.2789L20.501 21.4868V25.665L17.85 23.2789ZM17.4999 33.2031L14.5416 26.208L17.4999 23.5469L20.4582 26.2116L17.4999 33.2031ZM11.4475 5.65749L16.7424 7.95658L11.294 8.8762L11.4475 5.65749ZM17.4999 8.26795L23.7416 9.32154L24.4239 14.1586L20.5546 20.9292L17.4999 22.9929L14.4452 20.9292L10.5758 14.1586L11.2582 9.32154L17.4999 8.26795ZM24.7848 13.6663L24.1775 9.36137L27.9682 9.51343L24.7848 13.6663ZM28.3898 9.67998L32.8093 16.0052L26.7249 18.4491L24.8956 14.2347L28.3898 9.67998ZM28.1969 9.08983L24.1345 8.92689L23.9702 5.45474L28.6327 2.68498L28.1969 9.08983ZM23.5522 5.65749L23.7022 8.8762L18.2538 7.95658L23.5522 5.65749ZM10.2149 13.6663L7.02802 9.51705L10.8187 9.36499L10.2149 13.6663ZM10.8652 8.92689L6.80294 9.08983L6.36706 2.68498L11.0296 5.45474L10.8652 8.92689ZM10.1078 14.2347L8.2785 18.4491L2.19045 16.0052L6.61001 9.67998L10.1078 14.2347ZM8.17846 18.8799L8.27493 25.8677C5.24162 22.7576 3.19798 19.6004 2.20117 16.4758L8.17846 18.8799ZM8.6072 19.0501L14.07 21.2297V25.9438L8.70366 26.1755L8.6072 19.0501ZM8.67508 18.612L10.3793 14.6836L13.7913 20.654L8.67508 18.612ZM14.4988 21.4904L17.1497 23.2826L14.4988 25.6722V21.4904ZM24.6205 14.6836L26.3247 18.612L21.2085 20.654L24.6205 14.6836ZM20.9297 21.2297L26.3925 19.0501L26.2962 26.1755L20.9297 25.9438V21.2297ZM26.8213 18.8799L32.8021 16.4758C31.8054 19.6004 29.7618 22.7576 26.7285 25.8677L26.8213 18.8799ZM28.4255 2.30844L23.7773 5.06734L20.7368 2.42429C23.1164 1.18606 25.9996 1.1426 28.4255 2.30844ZM17.3176 5.26647C17.3176 5.27009 17.3212 5.27009 17.3212 5.27372C17.3284 5.28458 17.3392 5.29544 17.3498 5.3063C17.3606 5.31716 17.3677 5.32802 17.382 5.33527C17.3856 5.33527 17.3856 5.33888 17.3891 5.33888C17.3963 5.34613 17.407 5.34613 17.4177 5.34975C17.432 5.35699 17.4463 5.36422 17.4606 5.36422C17.4749 5.36785 17.4855 5.36422 17.4999 5.36422C17.5142 5.36422 17.5285 5.36422 17.5428 5.36061C17.557 5.35699 17.5714 5.34975 17.5856 5.34613C17.5964 5.3425 17.6035 5.3425 17.6142 5.33527C17.6178 5.33527 17.6178 5.33164 17.6214 5.33164C17.632 5.3244 17.6428 5.31353 17.6535 5.30267C17.6642 5.29181 17.675 5.28458 17.6821 5.27009C17.6821 5.26647 17.6857 5.26647 17.6892 5.26285C18.3323 4.19839 19.247 3.29687 20.3403 2.64515L23.3593 5.26647L17.4999 7.81175L11.6477 5.27009L14.6667 2.64878C15.7599 3.30049 16.6746 4.20202 17.3176 5.26647ZM14.2665 2.42429L11.226 5.06734L6.57428 2.30844C7.74616 1.74725 9.02164 1.46122 10.3007 1.46122C11.6691 1.46122 13.0339 1.78345 14.2665 2.42429ZM5.93474 2.6524L6.38492 9.25275L1.95108 15.596C1.62952 14.3542 1.45804 13.0942 1.45804 11.8523C1.45804 7.609 3.04792 4.36132 5.93474 2.6524ZM16.3459 32.6273C14.3308 31.1429 11.6084 29.1299 9.00735 26.5991L14.145 26.3782L16.989 33.1053C16.7854 32.9532 16.5709 32.7939 16.3459 32.6273ZM18.6539 32.6273C18.4288 32.7939 18.2108 32.9532 18.0072 33.1053L20.8512 26.3782L25.9888 26.5991C23.3914 29.1299 20.6689 31.1429 18.6539 32.6273Z" fill="#464646" stroke="#000000" stroke-width="0.376471"></path></g><defs><clipPath id="clip0_162_8383"><rect width="35" height="35" fill="white"></rect></clipPath></defs></svg>