<svg xmlns:xlink="http://www.w3.org/1999/xlink"  width="91" height="36" viewBox="0 0 91 36" fill="none" xmlns="http://www.w3.org/2000/svg"><g clip-path="url(#clip0_162_11514)"><path d="M45.4143 36C40.6224 36 36.0483 34.1455 32.6722 30.7636L32.4543 30.5455C29.1871 27.1636 27.3357 22.6909 27.3357 18C27.3357 13.2 29.1871 8.72727 32.5633 5.23636C36.0483 1.85455 40.5135 0 45.4143 0C50.2063 0 54.6715 1.85455 58.1565 5.23636C61.2059 8.29091 63.0574 12.2182 63.3841 16.4727C63.3841 17.0182 63.493 17.4545 63.493 18C63.493 18.3273 63.493 18.5455 63.493 18.8727C63.2752 23.3455 61.4238 27.6 58.2654 30.7636C54.6715 34.1455 50.2063 36 45.4143 36ZM33.5434 30.1091C36.7017 33.1636 40.8402 34.9091 45.3054 34.9091C49.7706 34.9091 54.018 33.1636 57.2853 30C60.2258 27.0545 61.9683 23.0182 62.1861 18.8727C62.1861 18.6545 62.1861 18.3273 62.1861 18.1091C62.1861 17.6727 62.1861 17.1273 62.0772 16.6909C61.7505 12.7636 60.008 8.94545 57.1764 6.10909C54.127 2.83636 49.8796 1.09091 45.4143 1.09091C40.8402 1.09091 36.7017 2.83636 33.4345 6C30.2762 9.16364 28.5337 13.4182 28.5337 18C28.5337 22.4727 30.2762 26.7273 33.4345 29.8909L33.5434 30.1091ZM45.4143 27.8182C42.8006 27.8182 40.2957 26.8364 38.4443 24.9818L38.3354 24.7636C36.5928 22.9091 35.6127 20.5091 35.6127 18C35.6127 15.3818 36.5928 12.8727 38.4443 11.0182C40.2957 9.16364 42.6917 8.18182 45.4143 8.18182C48.0281 8.18182 50.533 9.16364 52.2755 11.0182C54.127 12.8727 55.1071 15.2727 55.1071 18C55.1071 20.5091 54.1269 22.9091 52.3844 24.7636L52.2755 24.9818C50.4241 26.7273 48.0281 27.8182 45.4143 27.8182ZM39.4244 24.3273C41.058 25.8545 43.1273 26.7273 45.4143 26.7273C47.7014 26.7273 49.7707 25.8545 51.4043 24.3273L51.5132 24.2182C53.1468 22.5818 54.018 20.4 54.018 18.1091C54.018 15.8182 53.1468 13.6364 51.5132 12C49.8796 10.3636 47.7014 9.49091 45.4143 9.49091C43.1273 9.49091 40.9491 10.3636 39.3155 12C37.6819 13.6364 36.8106 15.8182 36.8106 18.1091C36.8106 20.4 37.6819 22.5818 39.3155 24.2182L39.4244 24.3273Z" fill="#464646"></path><path d="M22.9795 23.1274H5.44538C2.39597 23.1274 0 20.6183 0 17.6728C0 14.6183 2.50487 12.2183 5.44538 12.2183H22.9795C26.0289 12.2183 28.4249 14.7274 28.4249 17.6728C28.5338 20.7274 26.0289 23.1274 22.9795 23.1274ZM5.44538 13.3092C3.04941 13.3092 1.08908 15.2728 1.08908 17.6728C1.08908 20.0728 3.04941 22.0364 5.44538 22.0364H22.9795C25.3755 22.0364 27.3358 20.0728 27.3358 17.6728C27.3358 15.2728 25.3755 13.3092 22.9795 13.3092H5.44538Z" fill="#464646"></path><path d="M45.9589 27.2727H44.8699V35.4545H45.9589V27.2727Z" fill="#464646"></path><path d="M45.9589 0.54541H44.8699V8.72723H45.9589V0.54541Z" fill="#464646"></path><path d="M36.1573 17.4546H27.9893V18.5455H36.1573V17.4546Z" fill="#464646"></path><path d="M62.7308 17.4546H54.5627V18.5455H62.7308V17.4546Z" fill="#464646"></path><path d="M38.4445 11.8909L32.6724 5.99996L33.4347 5.23633L39.2068 11.0181L38.4445 11.8909Z" fill="#464646"></path><path d="M52.2727 24.168L51.5034 24.9402L57.2848 30.7198L58.0541 29.9477L52.2727 24.168Z" fill="#464646"></path><path d="M45.4145 27.8182C42.8007 27.8182 40.2958 26.8364 38.4444 24.9819L38.3355 24.7637C36.593 22.9092 35.6128 20.5092 35.6128 18.0001C35.6128 15.3819 36.593 12.8728 38.4444 11.0182C40.2958 9.1637 42.6918 8.18188 45.4145 8.18188C48.0283 8.18188 50.5331 9.1637 52.2756 11.0182C54.1271 12.8728 55.1072 15.2728 55.1072 18.0001C55.1072 20.5092 54.1271 22.9092 52.3846 24.7637L52.2756 24.9819C50.4242 26.7273 48.0283 27.8182 45.4145 27.8182ZM39.4246 24.3273C41.0582 25.8546 43.1274 26.7273 45.4145 26.7273C47.7015 26.7273 49.7708 25.8546 51.4044 24.3273L51.5133 24.2183C53.1469 22.5819 54.0182 20.4001 54.0182 18.1092C54.0182 15.8182 53.1469 13.6364 51.5133 12.0001C49.8797 10.3637 47.7015 9.49098 45.4145 9.49098C43.1274 9.49098 40.9493 10.3637 39.3156 12.0001C37.682 13.6364 36.8108 15.8182 36.8108 18.1092C36.8108 20.4001 37.682 22.5819 39.3156 24.2183L39.4246 24.3273Z" fill="#464646"></path><path d="M57.2168 5.28959L51.4412 11.075L52.2112 11.8463L57.9869 6.06097L57.2168 5.28959Z" fill="#464646"></path><path d="M32.9989 30.8728V30.3273H32.4543V30.1091L32.6722 29.8909L38.4443 24.1091L39.2066 24.9819L33.5434 30.5455V30.8728H32.9989Z" fill="#464646"></path><path d="M24.0686 20.4001C22.5439 20.4001 21.3459 19.2001 21.3459 17.6728C21.3459 16.1456 22.5439 14.9456 24.0686 14.9456C25.5933 14.9456 26.7913 16.1456 26.7913 17.6728C26.7913 19.2001 25.5933 20.4001 24.0686 20.4001ZM24.0686 16.0365C23.1974 16.0365 22.435 16.8001 22.435 17.6728C22.435 18.5456 23.1974 19.3092 24.0686 19.3092C24.9399 19.3092 25.7022 18.5456 25.7022 17.6728C25.7022 16.8001 24.9399 16.0365 24.0686 16.0365Z" fill="#464646"></path><path d="M85.2747 23.1274H67.7405C64.6911 23.1274 62.2952 20.6183 62.2952 17.6728C62.2952 14.6183 64.8 12.2183 67.7405 12.2183H85.2747C88.3241 12.2183 90.72 14.7274 90.72 17.6728C90.72 20.7274 88.3241 23.1274 85.2747 23.1274ZM67.7405 13.3092C65.3446 13.3092 63.3842 15.2728 63.3842 17.6728C63.3842 20.0728 65.3446 22.0364 67.7405 22.0364H85.2747C87.6706 22.0364 89.631 20.0728 89.631 17.6728C89.631 15.2728 87.6706 13.3092 85.2747 13.3092H67.7405Z" fill="#464646"></path><path d="M18.6231 20.4001C17.0984 20.4001 15.9004 19.2001 15.9004 17.6728C15.9004 16.1456 17.0984 14.9456 18.6231 14.9456C20.1478 14.9456 21.3458 16.1456 21.3458 17.6728C21.3458 19.2001 20.1478 20.4001 18.6231 20.4001ZM18.6231 16.0365C17.7518 16.0365 16.9895 16.8001 16.9895 17.6728C16.9895 18.5456 17.7518 19.3092 18.6231 19.3092C19.4943 19.3092 20.2567 18.5456 20.2567 17.6728C20.2567 16.8001 19.4943 16.0365 18.6231 16.0365Z" fill="#464646"></path><path d="M13.1778 20.4001C11.6531 20.4001 10.4551 19.2001 10.4551 17.6728C10.4551 16.1456 11.6531 14.9456 13.1778 14.9456C14.7025 14.9456 15.9005 16.1456 15.9005 17.6728C15.9005 19.2001 14.7025 20.4001 13.1778 20.4001ZM13.1778 16.0365C12.3065 16.0365 11.5442 16.8001 11.5442 17.6728C11.5442 18.5456 12.3065 19.3092 13.1778 19.3092C14.049 19.3092 14.8114 18.5456 14.8114 17.6728C14.8114 16.8001 14.049 16.0365 13.1778 16.0365Z" fill="#464646"></path><path d="M7.73245 20.4001C6.20775 20.4001 5.00977 19.2001 5.00977 17.6728C5.00977 16.1456 6.20775 14.9456 7.73245 14.9456C9.25716 14.9456 10.4551 16.1456 10.4551 17.6728C10.4551 19.2001 9.25716 20.4001 7.73245 20.4001ZM7.73245 16.0365C6.86119 16.0365 6.09884 16.8001 6.09884 17.6728C6.09884 18.5456 6.86119 19.3092 7.73245 19.3092C8.60371 19.3092 9.36607 18.5456 9.36607 17.6728C9.36607 16.8001 8.60371 16.0365 7.73245 16.0365Z" fill="#464646"></path><path d="M82.9876 20.4001C81.4629 20.4001 80.2649 19.2001 80.2649 17.6728C80.2649 16.1456 81.4629 14.9456 82.9876 14.9456C84.5123 14.9456 85.7103 16.1456 85.7103 17.6728C85.7103 19.2001 84.5123 20.4001 82.9876 20.4001ZM82.9876 16.0365C82.1163 16.0365 81.354 16.8001 81.354 17.6728C81.354 18.5456 82.1163 19.3092 82.9876 19.3092C83.8588 19.3092 84.6212 18.5456 84.6212 17.6728C84.6212 16.8001 83.9677 16.0365 82.9876 16.0365Z" fill="#464646"></path><path d="M77.5423 20.4001C76.0176 20.4001 74.8196 19.2001 74.8196 17.6728C74.8196 16.1456 76.0176 14.9456 77.5423 14.9456C79.067 14.9456 80.265 16.1456 80.265 17.6728C80.265 19.2001 79.067 20.4001 77.5423 20.4001ZM77.5423 16.0365C76.671 16.0365 75.9087 16.8001 75.9087 17.6728C75.9087 18.5456 76.671 19.3092 77.5423 19.3092C78.4135 19.3092 79.1759 18.5456 79.1759 17.6728C79.1759 16.8001 78.5224 16.0365 77.5423 16.0365Z" fill="#464646"></path><path d="M72.0967 20.4001C70.572 20.4001 69.374 19.2001 69.374 17.6728C69.374 16.1456 70.572 14.9456 72.0967 14.9456C73.6214 14.9456 74.8194 16.1456 74.8194 17.6728C74.8194 19.2001 73.6214 20.4001 72.0967 20.4001ZM72.0967 16.0365C71.2254 16.0365 70.4631 16.8001 70.4631 17.6728C70.4631 18.5456 71.2254 19.3092 72.0967 19.3092C72.968 19.3092 73.7303 18.5456 73.7303 17.6728C73.7303 16.8001 73.0769 16.0365 72.0967 16.0365Z" fill="#464646"></path><path d="M66.6514 20.4001C65.1267 20.4001 63.9287 19.2001 63.9287 17.6728C63.9287 16.1456 65.1267 14.9456 66.6514 14.9456C68.1761 14.9456 69.3741 16.1456 69.3741 17.6728C69.3741 19.2001 68.1761 20.4001 66.6514 20.4001ZM66.6514 16.0365C65.7801 16.0365 65.0178 16.8001 65.0178 17.6728C65.0178 18.5456 65.7801 19.3092 66.6514 19.3092C67.5227 19.3092 68.285 18.5456 68.285 17.6728C68.285 16.8001 67.6316 16.0365 66.6514 16.0365Z" fill="#464646"></path></g><defs><clipPath id="clip0_162_11514"><rect width="90.72" height="36" fill="white"></rect></clipPath></defs></svg>