<svg xmlns:xlink="http://www.w3.org/1999/xlink"  width="90" height="36" viewBox="0 0 90 36" fill="none" xmlns="http://www.w3.org/2000/svg"><g clip-path="url(#clip0_162_11625)"><path d="M44.6399 36C39.8609 36 35.2992 34.1455 31.9322 30.7636L31.8236 30.5455C28.5652 27.1636 26.7188 22.6909 26.7188 18C26.7188 13.2 28.5652 8.72727 31.9322 5.23636C35.2992 1.85455 39.8609 0 44.6399 0C49.4189 0 53.872 1.85455 57.3477 5.23636C60.3888 8.29091 62.2352 12.2182 62.5611 16.4727C62.5611 17.0182 62.6697 17.4545 62.6697 18C62.6697 18.3273 62.6697 18.5455 62.6697 18.8727C62.4525 23.3455 60.606 27.6 57.4563 30.7636C53.9806 34.1455 49.4189 36 44.6399 36ZM32.9097 30.1091C36.0595 33.1636 40.1868 34.9091 44.6399 34.9091C49.0931 34.9091 53.329 33.1636 56.5874 30C59.5199 27.0545 61.2577 23.0182 61.4749 18.8727C61.4749 18.6545 61.4749 18.3273 61.4749 18.1091C61.4749 17.6727 61.475 17.1273 61.3663 16.6909C61.0405 12.7636 59.3027 8.94545 56.4787 6.10909C53.329 2.83636 49.0931 1.09091 44.6399 1.09091C40.0782 1.09091 35.9509 2.83636 32.6925 6C29.5427 9.16364 27.8049 13.4182 27.8049 18C27.8049 22.4727 29.5427 26.7273 32.6925 29.8909L32.9097 30.1091ZM44.6399 27.8182C42.0332 27.8182 39.5351 26.8364 37.6887 24.9818L37.5801 24.7636C35.8423 22.9091 34.8647 20.5091 34.8647 18C34.8647 15.3818 35.8423 12.8727 37.6887 11.0182C39.5351 9.16364 41.9246 8.18182 44.6399 8.18182C47.2466 8.18182 49.7447 9.16364 51.4825 11.0182C53.329 12.8727 54.3065 15.2727 54.3065 18C54.3065 20.5091 53.329 22.9091 51.5912 24.7636L51.4825 24.9818C49.7447 26.7273 47.2466 27.8182 44.6399 27.8182ZM38.6662 24.3273C40.2954 25.8545 42.359 26.7273 44.6399 26.7273C46.9208 26.7273 48.9844 25.8545 50.6136 24.3273L50.7223 24.2182C52.3514 22.5818 53.2204 20.4 53.2204 18.1091C53.2204 15.8182 52.3514 13.6364 50.7223 12C49.0931 10.3636 46.9208 9.49091 44.6399 9.49091C42.359 9.49091 40.1868 10.3636 38.5576 12C36.9284 13.6364 36.0595 15.8182 36.0595 18.1091C36.0595 20.4 36.9284 22.5818 38.5576 24.2182L38.6662 24.3273Z" fill="#ffffff"></path><path d="M5.43059 30.4362C4.34446 30.4362 3.25833 30.109 2.28081 29.4544C1.08606 28.5817 0.325771 27.2726 0.108544 25.8544C-0.108682 24.4362 0.217158 22.909 0.97745 21.709C1.84635 20.509 3.0411 19.7453 4.45307 19.4181L21.7226 16.4726C23.1345 16.2544 24.6551 16.5817 25.8499 17.3453C27.0446 18.2181 27.8049 19.4181 28.1307 20.8362C28.6738 23.7817 26.6102 26.6181 23.6776 27.1635L6.40811 30.3271C6.08227 30.3271 5.75643 30.4362 5.43059 30.4362ZM22.7001 17.4544C22.4829 17.4544 22.157 17.4544 21.9398 17.5635L4.6703 20.6181C3.47555 20.8362 2.49803 21.4908 1.84635 22.4726C1.19468 23.4544 0.868836 24.6544 1.08606 25.7453C1.30329 26.9453 1.95497 27.9272 2.93249 28.5817C3.91 29.2362 5.10475 29.5635 6.19088 29.3453L23.4604 26.1817C25.8499 25.7453 27.4791 23.4544 27.0446 21.0544C26.8274 19.8544 26.1757 18.8726 25.1982 18.2181C24.4379 17.7817 23.569 17.4544 22.7001 17.4544Z" fill="#ffffff"></path><path d="M45.1831 27.2727H44.0969V35.4545H45.1831V27.2727Z" fill="#ffffff"></path><path d="M45.1831 0.54541H44.0969V8.72723H45.1831V0.54541Z" fill="#ffffff"></path><path d="M35.4077 17.4546H27.2617V18.5455H35.4077V17.4546Z" fill="#ffffff"></path><path d="M62.0181 17.4546H53.8721V18.5455H62.0181V17.4546Z" fill="#ffffff"></path><path d="M37.7972 11.8909L31.9321 5.99996L32.6924 5.23633L38.5575 11.0181L37.7972 11.8909Z" fill="#ffffff"></path><path d="M51.5724 24.1297L50.8052 24.9019L56.5709 30.6815L57.3381 29.9093L51.5724 24.1297Z" fill="#ffffff"></path><path d="M44.6399 27.8182C42.0332 27.8182 39.5351 26.8364 37.6887 24.9819L37.5801 24.7637C35.8423 22.9092 34.8647 20.5092 34.8647 18.0001C34.8647 15.3819 35.8423 12.8728 37.6887 11.0182C39.5351 9.1637 41.9246 8.18188 44.6399 8.18188C47.2466 8.18188 49.7447 9.1637 51.4826 11.0182C53.329 12.8728 54.3065 15.2728 54.3065 18.0001C54.3065 20.5092 53.329 22.9092 51.5912 24.7637L51.4826 24.9819C49.7447 26.7273 47.2466 27.8182 44.6399 27.8182ZM38.6662 24.3273C40.2954 25.8546 42.3591 26.7273 44.6399 26.7273C46.9208 26.7273 48.9845 25.8546 50.6137 24.3273L50.7223 24.2183C52.3515 22.5819 53.2204 20.4001 53.2204 18.1092C53.2204 15.8182 52.3515 13.6364 50.7223 12.0001C49.0931 10.3637 46.9208 9.49098 44.6399 9.49098C42.3591 9.49098 40.1868 10.3637 38.5576 12.0001C36.9284 13.6364 36.0595 15.8182 36.0595 18.1092C36.0595 20.4001 36.9284 22.5819 38.5576 24.2183L38.6662 24.3273Z" fill="#ffffff"></path><path d="M56.5032 5.2515L50.7432 11.0369L51.5112 11.8082L57.2712 6.02288L56.5032 5.2515Z" fill="#ffffff"></path><path d="M32.3666 30.8728V30.3273H31.8235V30.1091L31.9321 29.8909L37.7972 24.1091L38.5575 24.9819L32.9096 30.5455V30.8728H32.3666Z" fill="#ffffff"></path><path d="M66.5797 18.5454C63.973 18.5454 61.6921 16.6908 61.1491 13.9635C60.9318 12.5454 61.2577 11.0181 62.018 9.81809C62.7783 8.61809 64.0816 7.85446 65.4936 7.52718L82.7631 4.47264C84.2837 4.36355 85.8043 4.69082 86.999 5.56355C88.1937 6.43628 88.954 7.63628 89.2799 9.05446C89.4971 10.4726 89.1713 11.9999 88.411 13.1999C87.5421 14.3999 86.3473 15.1635 84.9353 15.4908L67.6659 18.5454C67.2314 18.5454 66.9056 18.5454 66.5797 18.5454ZM83.8492 5.67264C83.632 5.67264 83.3062 5.67264 83.0889 5.78173L65.8194 8.72718C64.6247 8.94537 63.6472 9.59991 62.9955 10.5817C62.3438 11.5635 62.018 12.7635 62.2352 13.8545C62.6697 16.2545 64.9505 17.8908 67.34 17.4545L84.6095 14.3999C85.8043 14.1817 86.7818 13.5272 87.4335 12.5454C88.0851 11.5635 88.411 10.3635 88.1937 9.27264C87.9765 8.07264 87.3248 7.09082 86.3473 6.43628C85.587 5.89082 84.7181 5.67264 83.8492 5.67264Z" fill="#ffffff"></path><path d="M22.8086 18.7637C22.4828 18.7637 22.1569 18.7637 21.7225 18.6547L4.56159 15.2728C1.62904 14.7274 -0.326001 11.7819 0.217065 8.83647C0.760131 5.89102 3.69269 3.92738 6.62524 4.47283L23.7861 7.85465C26.7187 8.40011 28.6737 11.3456 28.1306 14.291C27.5876 16.9092 25.3067 18.7637 22.8086 18.7637ZM5.64772 5.45465C3.58407 5.45465 1.73765 6.87283 1.3032 8.94556C0.868744 11.3456 2.38933 13.6365 4.77882 14.0728L21.9397 17.4547C24.3292 17.891 26.6101 16.3637 27.0445 13.9637C27.479 11.5637 25.9584 9.27283 23.5689 8.83647L6.40801 5.56374C6.19079 5.45465 5.86495 5.45465 5.64772 5.45465Z" fill="#ffffff"></path><path d="M83.7407 30.4363C83.4148 30.4363 83.089 30.4363 82.6546 30.3272L65.4937 26.9453C64.0817 26.6181 62.887 25.8544 62.0181 24.6544C61.1491 23.4544 60.9319 21.9272 61.1492 20.509C61.475 19.0908 62.2353 17.8908 63.43 17.0181C64.6248 16.1453 66.1454 15.9272 67.5573 16.1453L84.7182 19.5272C86.1302 19.8544 87.3249 20.6181 88.1938 21.8181C89.0627 23.0181 89.28 24.5453 89.0627 25.9635C88.5197 28.5817 86.2388 30.4363 83.7407 30.4363ZM66.5798 17.1272C65.7109 17.1272 64.842 17.3453 64.1903 17.8908C63.2128 18.5453 62.5611 19.5272 62.3439 20.7272C62.1267 21.9272 62.3439 23.0181 62.9956 23.9999C63.6473 24.9817 64.6248 25.6363 65.8195 25.8544L82.9804 29.2363C85.3699 29.6726 87.6508 28.1453 88.0852 25.7453C88.3024 24.5453 88.0852 23.4544 87.4335 22.4726C86.7819 21.4908 85.8043 20.8363 84.6096 20.6181L67.3401 17.2363C67.1229 17.1272 66.797 17.1272 66.5798 17.1272Z" fill="#ffffff"></path></g><defs><clipPath id="clip0_162_11625"><rect width="89.28" height="36" fill="white"></rect></clipPath></defs></svg>