<svg xmlns:xlink="http://www.w3.org/1999/xlink"  width="35" height="35" viewBox="0 0 35 35" fill="none" xmlns="http://www.w3.org/2000/svg"><g clip-path="url(#clip0_162_8385)"><path d="M33.9706 17.5138V17.5V17.4862C33.9671 15.2612 33.5207 13.1401 32.718 11.2025C32.7145 11.1921 32.7145 11.1782 32.7111 11.1678C32.7076 11.1609 32.7007 11.154 32.6972 11.1471C31.8668 9.17128 30.6627 7.38927 29.1748 5.891C29.1575 5.86332 29.1367 5.84256 29.109 5.82526C27.6108 4.33737 25.8322 3.13322 23.8564 2.30623C23.8495 2.30276 23.846 2.29585 23.8391 2.29239C23.8287 2.28893 23.8183 2.28893 23.8045 2.28547C21.8599 1.47577 19.7319 1.02941 17.5 1.02941C15.2681 1.02941 13.1401 1.47577 11.199 2.28547C11.1886 2.28893 11.1748 2.28893 11.1644 2.29239C11.1575 2.29585 11.154 2.30276 11.1471 2.30623C9.17128 3.13668 7.39274 4.33737 5.89447 5.82526C5.86679 5.84256 5.84603 5.86332 5.82873 5.891C4.34084 7.38927 3.13669 9.16782 2.30624 11.1471C2.30277 11.154 2.29585 11.1575 2.29239 11.1678C2.28548 11.1782 2.28894 11.1921 2.28548 11.2025C1.47924 13.1401 1.03288 15.2612 1.02942 17.4862V17.5V17.5138C1.03288 19.7388 1.47924 21.8599 2.28548 23.7975C2.28894 23.8079 2.28894 23.8218 2.29239 23.8322C2.29585 23.8391 2.30277 23.846 2.30624 23.8529C3.13669 25.8288 4.34084 27.6108 5.82873 29.109C5.84603 29.1367 5.86679 29.1575 5.89447 29.1748C7.39274 30.6627 9.17128 31.8668 11.1471 32.6938C11.154 32.6972 11.1575 32.7041 11.1644 32.7076C11.1748 32.7111 11.1851 32.7111 11.1955 32.7145C13.1401 33.5207 15.2681 33.9706 17.5 33.9706C19.7319 33.9706 21.8599 33.5207 23.801 32.7145C23.8114 32.7111 23.8218 32.7111 23.8322 32.7076C23.8391 32.7041 23.8425 32.6972 23.8495 32.6938C25.8253 31.8633 27.6038 30.6627 29.1021 29.1748C29.1298 29.1575 29.1505 29.1367 29.1679 29.109C30.6557 27.6108 31.8599 25.8322 32.6903 23.8564C32.6938 23.8495 32.7007 23.8425 32.7042 23.8356C32.7111 23.8252 32.7076 23.8114 32.7111 23.801C33.5207 21.8599 33.9671 19.7388 33.9706 17.5138ZM32.3996 23.4723L28.9567 21.9429L33.545 17.9671C33.4897 19.9048 33.0883 21.7595 32.3996 23.4723ZM23.8564 32.2405L22.327 28.8011L28.5035 29.1782C27.1505 30.4515 25.5831 31.4931 23.8564 32.2405ZM6.49655 29.1782L12.673 28.8011L11.1436 32.2405C9.41696 31.4931 7.84949 30.4515 6.49655 29.1782ZM1.45503 17.9636L6.04326 21.9394L2.60035 23.4688C1.91177 21.7595 1.51039 19.9048 1.45503 17.9636ZM2.60035 11.5277L6.04326 13.0571L1.45503 17.0364C1.51039 15.0952 1.91177 13.2405 2.60035 11.5277ZM11.1436 2.75951L12.673 6.19896L6.49655 5.8218C7.84949 4.54845 9.41696 3.50692 11.1436 2.75951ZM28.5035 5.8218L22.327 6.19896L23.8564 2.75951C25.5831 3.50692 27.1505 4.54845 28.5035 5.8218ZM33.545 17.0364L28.9567 13.0571L32.3996 11.5277C33.0883 13.2405 33.4897 15.0952 33.545 17.0364ZM28.3789 12.763L23.0052 11.9913L22.2336 6.61765L28.7768 6.21973L28.3789 12.763ZM22.6661 22.6661L17.5 24.8876L12.3339 22.6661L10.1125 17.5L12.3339 12.3339L17.5 10.1125L22.6661 12.3339L24.8876 17.5L22.6661 22.6661ZM9.83565 17.0917L6.80797 13.1574L11.8391 12.4343L9.83565 17.0917ZM9.83565 17.9083L11.8391 22.5657L6.80797 21.8426L9.83565 17.9083ZM25.1644 17.9083L28.1921 21.8461L23.1609 22.5692L25.1644 17.9083ZM25.1644 17.0917L23.1609 12.4343L28.1921 13.1574L25.1644 17.0917ZM21.8426 6.80796L22.5657 11.8391L17.9083 9.83564L21.8426 6.80796ZM17.5 9.62457L13.3028 6.3962L17.5 1.55536L21.6972 6.39966L17.5 9.62457ZM17.0917 9.83564L12.4343 11.8391L13.1574 6.80796L17.0917 9.83564ZM11.9948 11.9948L6.62111 12.7665L6.22319 6.22319L12.7665 6.6211L11.9948 11.9948ZM6.39621 13.3028L9.62457 17.5L6.39621 21.6972L1.55537 17.5L6.39621 13.3028ZM6.62111 22.237L11.9948 23.0087L12.7665 28.3823L6.22319 28.7803L6.62111 22.237ZM13.1574 28.1921L12.4343 23.1609L17.0917 25.1644L13.1574 28.1921ZM17.5 25.3754L21.6972 28.6039L17.5 33.4447L13.3028 28.6004L17.5 25.3754ZM17.9083 25.1644L22.5657 23.1609L21.8426 28.1921L17.9083 25.1644ZM23.0052 23.0052L28.3789 22.2335L28.7768 28.7768L22.2336 28.3789L23.0052 23.0052ZM28.6039 21.6972L25.3754 17.5L28.6039 13.3028L33.4481 17.5L28.6039 21.6972ZM28.8011 12.673L29.1782 6.49654C30.4516 7.84602 31.4965 9.41696 32.244 11.1436L28.8011 12.673ZM21.9394 6.04325L17.9637 1.45502C19.9048 1.51038 21.7595 1.91176 23.4688 2.60035L21.9394 6.04325ZM13.0606 6.04325L11.5312 2.60035C13.2405 1.91176 15.0952 1.51038 17.0364 1.45502L13.0606 6.04325ZM6.19897 12.673L2.75952 11.1436C3.50692 9.41696 4.55191 7.84602 5.82526 6.49654L6.19897 12.673ZM6.19897 22.327L5.8218 28.5035C4.54845 27.154 3.50347 25.583 2.75606 23.8564L6.19897 22.327ZM13.0606 28.9567L17.0364 33.545C15.0952 33.4896 13.2405 33.0883 11.5312 32.3996L13.0606 28.9567ZM21.9394 28.9567L23.4688 32.3996C21.7595 33.0883 19.9048 33.4896 17.9637 33.545L21.9394 28.9567ZM28.8011 22.327L32.2405 23.8564C31.4931 25.583 30.4482 27.154 29.1748 28.5035L28.8011 22.327Z" fill="#ffffff" stroke="#ffffff" stroke-width="0.376471"></path></g><defs><clipPath id="clip0_162_8385"><rect width="35" height="35" fill="#ffffff"></rect></clipPath></defs></svg>