<svg xmlns:xlink="http://www.w3.org/1999/xlink"  width="91" height="36" viewBox="0 0 91 36" fill="none" xmlns="http://www.w3.org/2000/svg"><g clip-path="url(#clip0_162_11352)"><path d="M45.469 36C40.6713 36 36.0917 34.1455 32.7115 30.7636L32.6025 30.5455C29.3313 27.1636 27.4777 22.6909 27.4777 18C27.4777 13.2 29.3313 8.72727 32.7115 5.23636C36.0917 1.85455 40.5623 0 45.469 0C50.2667 0 54.7373 1.85455 58.2265 5.23636C61.2796 8.29091 63.1332 12.2182 63.4604 16.4727C63.4604 17.0182 63.5694 17.4545 63.5694 18C63.5694 18.3273 63.5694 18.5455 63.5694 18.8727C63.3513 23.3455 61.4977 27.6 58.3355 30.7636C54.7373 34.1455 50.2667 36 45.469 36ZM33.6929 30.1091C36.855 33.1636 40.9984 34.9091 45.469 34.9091C49.9396 34.9091 54.1921 33.1636 57.4632 30C60.4073 27.0545 62.1519 23.0182 62.37 18.8727C62.37 18.6545 62.37 18.3273 62.37 18.1091C62.37 17.6727 62.37 17.1273 62.2609 16.6909C61.9338 12.7636 60.1892 8.94545 57.3542 6.10909C54.1921 2.83636 49.9396 1.09091 45.469 1.09091C40.8894 1.09091 36.7459 2.83636 33.4748 6C30.3127 9.16364 28.568 13.4182 28.568 18C28.568 22.4727 30.3127 26.7273 33.4748 29.8909L33.6929 30.1091ZM45.469 27.8182C42.8521 27.8182 40.3442 26.8364 38.4905 24.9818L38.3815 24.7636C36.6369 22.9091 35.6555 20.5091 35.6555 18C35.6555 15.3818 36.6369 12.8727 38.4905 11.0182C40.3442 9.16364 42.743 8.18182 45.469 8.18182C48.0859 8.18182 50.5938 9.16364 52.3384 11.0182C54.1921 12.8727 55.1734 15.2727 55.1734 18C55.1734 20.5091 54.1921 22.9091 52.4475 24.7636L52.3384 24.9818C50.4848 26.7273 48.0859 27.8182 45.469 27.8182ZM39.4719 24.3273C41.1075 25.8545 43.1792 26.7273 45.469 26.7273C47.7588 26.7273 49.8305 25.8545 51.4661 24.3273L51.5752 24.2182C53.2107 22.5818 54.083 20.4 54.083 18.1091C54.083 15.8182 53.2107 13.6364 51.5752 12C49.9396 10.3636 47.7588 9.49091 45.469 9.49091C43.1792 9.49091 40.9984 10.3636 39.3629 12C37.7273 13.6364 36.855 15.8182 36.855 18.1091C36.855 20.4 37.7273 22.5818 39.3629 24.2182L39.4719 24.3273Z" fill="#ffffff"></path><path d="M23.0071 23.1274H5.45192C2.39885 23.1274 0 20.6183 0 17.6728C0 14.7274 2.50788 12.2183 5.45192 12.2183H23.0071C26.0602 12.2183 28.459 14.7274 28.459 17.6728C28.459 20.6183 26.0602 23.1274 23.0071 23.1274ZM5.45192 13.2001C3.05308 13.2001 1.09038 15.1637 1.09038 17.5637C1.09038 19.9637 3.05308 21.9274 5.45192 21.9274H23.0071C25.406 21.9274 27.3687 19.9637 27.3687 17.5637C27.3687 15.1637 25.406 13.2001 23.0071 13.2001H5.45192Z" fill="#ffffff"></path><path d="M85.1591 23.1274H67.6039C64.5508 23.1274 62.152 20.6183 62.152 17.6728C62.152 14.7274 64.6599 12.2183 67.6039 12.2183H85.1591C88.2122 12.2183 90.611 14.7274 90.611 17.6728C90.611 20.6183 88.2122 23.1274 85.1591 23.1274ZM67.6039 13.2001C65.2051 13.2001 63.2424 15.1637 63.2424 17.5637C63.2424 19.9637 65.2051 21.9274 67.6039 21.9274H85.1591C87.5579 21.9274 89.5206 19.9637 89.5206 17.5637C89.5206 15.1637 87.5579 13.2001 85.1591 13.2001H67.6039Z" fill="#ffffff"></path><path d="M46.0147 27.2727H44.9238V35.4545H46.0147V27.2727Z" fill="#ffffff"></path><path d="M46.0147 0.54541H44.9238V8.72723H46.0147V0.54541Z" fill="#ffffff"></path><path d="M36.2007 17.4546H28.0228V18.5455H36.2007V17.4546Z" fill="#ffffff"></path><path d="M62.8062 17.4546H54.6283V18.5455H62.8062V17.4546Z" fill="#ffffff"></path><path d="M38.4906 11.8909L32.7115 5.99996L33.4748 5.23633L39.2539 11.0182L38.4906 11.8909Z" fill="#ffffff"></path><path d="M52.3365 24.1699L51.566 24.9419L57.3557 30.7201L58.1262 29.9482L52.3365 24.1699Z" fill="#ffffff"></path><path d="M45.4691 27.8182C42.8522 27.8182 40.3443 26.8364 38.4906 24.9819L38.3816 24.7637C36.637 22.9092 35.6556 20.5092 35.6556 18.0001C35.6556 15.3819 36.637 12.8728 38.4906 11.0182C40.3443 9.1637 42.7431 8.18188 45.4691 8.18188C48.086 8.18188 50.5939 9.1637 52.3385 11.0182C54.1922 12.8728 55.1735 15.2728 55.1735 18.0001C55.1735 20.5092 54.1922 22.9092 52.4476 24.7637L52.3385 24.9819C50.4849 26.7273 48.086 27.8182 45.4691 27.8182ZM39.472 24.3273C41.1076 25.8546 43.1793 26.7273 45.4691 26.7273C47.7589 26.7273 49.8306 25.8546 51.4662 24.3273L51.5753 24.2183C53.2108 22.5819 54.0831 20.4001 54.0831 18.1092C54.0831 15.8182 53.2108 13.6364 51.5753 12.0001C49.9397 10.3637 47.7589 9.49098 45.4691 9.49098C43.1793 9.49098 40.9985 10.3637 39.3629 12.0001C37.7274 13.6364 36.8551 15.8182 36.8551 18.1092C36.8551 20.4001 37.7274 22.5819 39.3629 24.2183L39.472 24.3273Z" fill="#ffffff"></path><path d="M57.2876 5.29268L51.5037 11.0767L52.2749 11.8479L58.0588 6.06388L57.2876 5.29268Z" fill="#ffffff"></path><path d="M33.1477 30.8728L33.0387 30.3273H32.6025V30.1091L32.7116 29.8909L38.4906 24.1091L39.2539 24.9819L33.6929 30.5455V30.8728H33.1477Z" fill="#ffffff"></path></g><defs><clipPath id="clip0_162_11352"><rect width="90.72" height="36" fill="white"></rect></clipPath></defs></svg>